<?xml version="1.0" encoding="utf-8"?>
<!-- Generator: Adobe Illustrator 19.0.0, SVG Export Plug-In . SVG Version: 6.00 Build 0)  -->
<svg version="1.1" id="Calque_1" xmlns="http://www.w3.org/2000/svg" xmlns:xlink="http://www.w3.org/1999/xlink" x="0px" y="0px"
	 viewBox="0 0 99.2 99.2" style="enable-background:new 0 0 99.2 99.2;" xml:space="preserve">
<style type="text/css">
	.st0{fill:#1D1D1B;}
</style>
<g id="XMLID_1_">
	<g id="XMLID_62_">
		<path id="XMLID_66_" class="st0" d="M28,43.9c0.2,7,0.4,14,0.7,21c0.2,3.5,0.4,7,0.6,10.5c0.2,2.1-0.3,6.1,1.2,7.9
			c2.7,3.5,11,3.6,15.1,4c6.9,0.6,13.9,0.1,20.8-0.4c2.9-0.2,2.9-4.8,0-4.6C61,82.7,55.3,83,49.8,83c-4.4-0.1-14.4,0.3-15.7-4.9
			c-1.3-5.1-0.7-11.4-0.9-16.6C33,55.7,32.8,49.8,32.7,44C32.5,41,27.9,41,28,43.9L28,43.9z"/>
	</g>
</g>
<g id="XMLID_2_">
	<g id="XMLID_56_">
		<path id="XMLID_60_" class="st0" d="M29.1,45.5c3.5,2.3,7,4.6,10.5,7c1.2,0.7,3.1,0.1,3.4-1.4c1.4-7.9,2.7-15.9,4.1-23.8
			c0.4-2.1-2.1-4.1-3.9-2.2c-5,5.1-9.6,10.4-14,15.9c-1.8,2.3,1.4,5.6,3.2,3.2c4.4-5.5,9-10.9,14-15.9c-1.3-0.7-2.6-1.5-3.9-2.2
			c-1.3,7.8-2.7,15.8-4,23.8c1.1-0.5,2.2-0.9,3.4-1.4c-3.5-2.3-7-4.6-10.5-7C29,39.9,26.7,43.8,29.1,45.5L29.1,45.5z"/>
	</g>
</g>
<g id="XMLID_3_">
	<g id="XMLID_50_">
		<path id="XMLID_54_" class="st0" d="M45.1,28.9c7.1,0,14.2-0.1,21.3-0.1c2.9,0,2.9-4.6,0-4.6c-7.1,0-14.2,0.1-21.3,0.1
			C42.2,24.4,42.2,29,45.1,28.9L45.1,28.9z"/>
	</g>
</g>
<g id="XMLID_4_">
	<g id="XMLID_44_">
		<path id="XMLID_48_" class="st0" d="M64.2,27.2c1.7,9.9,1.7,20.2,1.6,30.1c0,9.2-0.5,18.1-1.7,27.3c-0.4,2.9,4.2,2.9,4.6,0
			c2.5-19.1,3.1-39.6-0.1-58.7C68.1,23,63.7,24.3,64.2,27.2L64.2,27.2z"/>
	</g>
</g>
<g id="XMLID_5_">
	<g id="XMLID_38_">
		<path id="XMLID_42_" class="st0" d="M47.7,45c3.6,0,7.1,0.1,10.6,0.4c2.9,0.2,2.9-4.4,0-4.6c-3.5-0.2-7.1-0.4-10.6-0.4
			C44.7,40.4,44.7,45,47.7,45L47.7,45z"/>
	</g>
</g>
<g id="XMLID_6_">
	<g id="XMLID_32_">
		<path id="XMLID_36_" class="st0" d="M46.7,54.7c4.3,0,8.7,0,13,0c2.9,0,2.9-4.6,0-4.6c-4.3,0-8.7,0-13,0
			C43.7,50.1,43.7,54.7,46.7,54.7L46.7,54.7z"/>
	</g>
</g>
<g id="XMLID_7_">
	<g id="XMLID_27_">
		<path id="XMLID_31_" class="st0" d="M37.1,64.4c8.1,0.3,16.3,0.6,24.4,0.8c2.9,0.1,2.9-4.5,0-4.6c-8.1-0.3-16.3-0.6-24.4-0.8
			C34.2,59.7,34.2,64.3,37.1,64.4L37.1,64.4z"/>
	</g>
</g>
<g id="XMLID_9_">
	<g id="XMLID_37_">
		<path id="XMLID_61_" class="st0" d="M38.5,75.7c6.9-0.1,13.8-0.3,20.7-0.4c2.9-0.1,2.9-4.7,0-4.6c-6.9,0.1-13.8,0.3-20.7,0.4
			C35.5,71.2,35.5,75.8,38.5,75.7L38.5,75.7z"/>
	</g>
</g>
<g id="XMLID_34_">
	<g id="XMLID_35_">
		<path id="XMLID_80_" class="st0" d="M84.5,73.2c-5.2,0.3-10.4,0.7-15.6,0.6c-0.2,1.7-0.5,3.2-1.1,4.5c5.6,0.2,11.2-0.2,16.7-0.6
			C87.5,77.6,87.5,73,84.5,73.2z"/>
	</g>
</g>
<g id="XMLID_29_">
	<g id="XMLID_30_">
		<path id="XMLID_52_" class="st0" d="M59.3,24.7C59.3,24.7,59.3,24.7,59.3,24.7C59.3,24.7,59.3,24.7,59.3,24.7
			c1.1,0.1,2.1,0.2,3,0.2c0.4,0,0.7,0,1,0.1c0.2,0,0.4,0.1,0.6,0.1c0.4-2.3,0.8-4.6,1.2-6.9c0.4-2.1-2.1-4.1-3.9-2.2
			c-2.7,2.8-5.3,5.6-7.9,8.6C55.3,24.3,57.3,24.5,59.3,24.7z"/>
	</g>
</g>
<g id="XMLID_25_">
	<g id="XMLID_26_">
		<path id="XMLID_28_" class="st0" d="M63.2,19.8c7.1,0,14.2-0.1,21.3-0.1c2.9,0,2.9-4.6,0-4.6c-7.1,0-14.2,0.1-21.3,0.1
			C60.2,15.3,60.2,19.9,63.2,19.8L63.2,19.8z"/>
	</g>
</g>
<g id="XMLID_22_">
	<g id="XMLID_23_">
		<path id="XMLID_24_" class="st0" d="M82.2,18.1c1.7,9.9,1.7,20.2,1.6,30.1c0,9.2-0.5,18.1-1.7,27.3c-0.4,2.9,4.2,2.9,4.6,0
			c2.5-19.1,3.1-39.6-0.1-58.7C86.2,13.9,81.8,15.2,82.2,18.1L82.2,18.1z"/>
	</g>
</g>
<g id="XMLID_19_">
	<g id="XMLID_20_">
		<path id="XMLID_57_" class="st0" d="M76.3,31.7c-2.9-0.2-5.9-0.3-8.9-0.3c0.2,1.5,0.3,3.1,0.4,4.6c2.9,0,5.7,0.1,8.5,0.4
			C79.3,36.5,79.3,31.9,76.3,31.7z"/>
	</g>
</g>
<g id="XMLID_16_">
	<g id="XMLID_17_">
		<path id="XMLID_47_" class="st0" d="M77.7,41h-9.8c0,1.5-0.1,3.1-0.1,4.6h9.9C80.7,45.6,80.7,41,77.7,41z"/>
	</g>
</g>
<g id="XMLID_13_">
	<g id="XMLID_14_">
		<path id="XMLID_33_" class="st0" d="M79.5,51.5c-3.9-0.1-7.9-0.3-11.9-0.4c0,1.5,0,3.1,0,4.6c4,0.1,7.9,0.3,11.9,0.4
			C82.5,56.2,82.5,51.6,79.5,51.5z"/>
	</g>
</g>
<g id="XMLID_10_">
	<g id="XMLID_11_">
		<path id="XMLID_43_" class="st0" d="M77.2,61.6c-3,0-6,0.1-9.1,0.2c0.2,1.3,0.4,2.9,0.6,4.6c2.8-0.1,5.7-0.1,8.5-0.2
			C80.2,66.1,80.2,61.5,77.2,61.6z"/>
	</g>
</g>
<g id="XMLID_71_">
	<g id="XMLID_72_">
		<path id="XMLID_75_" class="st0" d="M32.5,76.8c-0.7-1.3-0.9-2.9-0.4-4.3c-4.4-0.1-14.3,0.3-15.6-4.9c-1.3-5.1-0.7-11.4-0.9-16.6
			c-0.3-5.8-0.5-11.7-0.6-17.5c-0.2-3-4.8-3-4.7-0.1c0.2,7,0.4,14,0.7,21c0.2,3.5,0.4,7,0.6,10.5c0.2,2.1-0.3,6.1,1.2,7.9
			c2.7,3.5,11,3.6,15.1,4c1.5,0.1,3,0.2,4.6,0.2C32.6,76.9,32.5,76.9,32.5,76.8z"/>
	</g>
</g>
<g id="XMLID_68_">
	<g id="XMLID_69_">
		<path id="XMLID_70_" class="st0" d="M11.5,35c3.5,2.3,7,4.6,10.5,7c1.2,0.7,3.1,0.1,3.4-1.4c1.4-7.9,2.7-15.9,4.1-23.8
			c0.4-2.1-2.1-4.1-3.9-2.2c-5,5.1-9.6,10.4-14,15.9c-1.8,2.3,1.4,5.6,3.2,3.2c4.4-5.5,9-10.9,14-15.9c-1.3-0.7-2.6-1.5-3.9-2.2
			c-1.3,7.8-2.7,15.8-4,23.8c1.1-0.5,2.2-0.9,3.4-1.4c-3.5-2.3-7-4.6-10.5-7C11.4,29.4,9.1,33.3,11.5,35L11.5,35z"/>
	</g>
</g>
<g id="XMLID_64_">
	<g id="XMLID_65_">
		<path id="XMLID_67_" class="st0" d="M27.5,18.4c7.1,0,14.2-0.1,21.3-0.1c2.9,0,2.9-4.6,0-4.6c-7.1,0-14.2,0.1-21.3,0.1
			C24.6,13.9,24.6,18.5,27.5,18.4L27.5,18.4z"/>
	</g>
</g>
<g id="XMLID_58_">
	<g id="XMLID_59_">
		<path id="XMLID_79_" class="st0" d="M47.6,25.5c1.4-0.3,3-0.4,4.7-0.2c-0.3-3.4-0.8-6.7-1.3-10c-0.5-2.9-4.9-1.6-4.4,1.3
			C47.1,19.6,47.4,22.6,47.6,25.5z"/>
	</g>
</g>
<g id="XMLID_53_">
	<g id="XMLID_55_">
		<path id="XMLID_76_" class="st0" d="M39.6,30.2c-3.1-0.2-6.3-0.3-9.5-0.3c-3,0-3,4.6,0,4.6c2.1,0,4.1,0,6.2,0.1
			C37.2,33.1,38.3,31.6,39.6,30.2z"/>
	</g>
</g>
<g id="XMLID_49_">
	<g id="XMLID_51_">
		<path id="XMLID_73_" class="st0" d="M33.1,40.9c0.2-0.4,0.4-0.9,0.6-1.3h-4.6c-2.9,0-2.9,4.6,0,4.6h2.7C32,43.1,32.5,42,33.1,40.9
			z"/>
	</g>
</g>
<g id="XMLID_45_">
	<g id="XMLID_46_">
		<path id="XMLID_78_" class="st0" d="M29.8,49.6c-3.4-0.1-6.9-0.2-10.3-0.3c-2.9-0.1-2.9,4.5,0,4.6c3.4,0.1,6.8,0.2,10.3,0.3
			C29.1,52.8,29.1,51,29.8,49.6z"/>
	</g>
</g>
<g id="XMLID_40_">
	<g id="XMLID_41_">
		<path id="XMLID_77_" class="st0" d="M30.5,60.4c-3.2,0.1-6.4,0.1-9.7,0.2c-2.9,0.1-2.9,4.7,0,4.6c3.3,0,6.7-0.1,10-0.2
			C30.1,63.7,29.9,61.9,30.5,60.4z"/>
	</g>
</g>
</svg>
