<?xml version="1.0" encoding="utf-8"?>
<!-- Generator: Adobe Illustrator 19.0.0, SVG Export Plug-In . SVG Version: 6.00 Build 0)  -->
<svg version="1.1" id="Calque_1" xmlns="http://www.w3.org/2000/svg" xmlns:xlink="http://www.w3.org/1999/xlink" x="0px" y="0px"
	 viewBox="0 0 99.2 99.2" style="enable-background:new 0 0 99.2 99.2;" xml:space="preserve">
<style type="text/css">
	.st0{fill:#1D1D1B;}
</style>
<g id="XMLID_1_">
	<g id="XMLID_13_">
		<path id="XMLID_17_" class="st0" d="M15.8,42c0,4.2-0.1,8.4,0.4,12.6c0.2,2.4,0.2,5.5,1.6,7.6c1.1,1.6,2.6,2,4.4,2.1
			c2.1,0.2,6.1,0.8,8-0.6c3.7-2.8,0.8-13,0.3-16.7c-0.3-2.6-0.2-5.9-2.2-7.7c-2.3-2-6.7-1.7-9.5-1.6c-3.2,0.1-3.2,5.1,0,5
			c1.5-0.1,5.3-0.6,6.3,0.7c0.5,0.7,0.7,5.3,0.8,5.9c0.2,1.5,2,8.7,0.8,10c-0.1,0.1-4,0.2-4.4-0.1c-1.3-1.1-1-4.8-1.2-6.3
			c-0.3-3.7-0.2-7.3-0.2-11C20.8,38.8,15.8,38.8,15.8,42L15.8,42z"/>
	</g>
</g>
<g id="XMLID_3_">
	<g id="XMLID_27_">
		<path id="XMLID_31_" class="st0" d="M58.6,44c4,4.3,4.1,10.4,0.2,14.8c-2.1,2.4,1.4,6,3.5,3.5c5.7-6.5,5.7-15.5-0.2-21.9
			C59.9,38.1,56.4,41.6,58.6,44L58.6,44z"/>
	</g>
</g>
<g id="XMLID_4_">
	<g id="XMLID_34_">
		<path id="XMLID_38_" class="st0" d="M62.7,36.4c9.8,3.6,8.7,19.1,5.9,26.8c-1.1,3,3.7,4.3,4.8,1.3c3.9-10.7,3.2-28.2-9.4-32.9
			C61,30.4,59.7,35.3,62.7,36.4L62.7,36.4z"/>
	</g>
</g>
<g id="XMLID_2_">
	<g id="XMLID_25_">
		<path id="XMLID_40_" class="st0" d="M28.2,43.1c3.3-1.7,6.6-3.3,10-4.9c3.2-1.5,6.8-3.8,10.2-4.7c-0.8-0.2-1.6-0.4-2.4-0.6
			c4.2,3.4,4.1,12.5,4.2,17.4c0.1,5.9-0.9,11.4-4.1,16.4c-1.8,2.7,2.6,5.2,4.3,2.5c6.1-9.4,6.3-23.3,2.7-33.8
			c-1.2-3.7-3.1-7.8-7.4-6.3c-6.8,2.3-13.6,6.4-20,9.7C22.8,40.2,25.4,44.5,28.2,43.1L28.2,43.1z"/>
	</g>
</g>
<g id="XMLID_6_">
	<g id="XMLID_48_">
		<path id="XMLID_52_" class="st0" d="M28.6,63.8c5.9,1.7,12.6,2.9,17.7,6.5c2.7,1.8,5.2-2.5,2.5-4.3c-5.5-3.8-12.5-5.1-18.9-7
			C26.8,58.1,25.5,62.9,28.6,63.8L28.6,63.8z"/>
	</g>
</g>
</svg>
