<?xml version="1.0" encoding="utf-8"?>
<!-- Generator: Adobe Illustrator 19.0.0, SVG Export Plug-In . SVG Version: 6.00 Build 0)  -->
<svg version="1.1" id="Calque_1" xmlns="http://www.w3.org/2000/svg" xmlns:xlink="http://www.w3.org/1999/xlink" x="0px" y="0px"
	 viewBox="0 0 99.2 99.2" style="enable-background:new 0 0 99.2 99.2;" xml:space="preserve">
<style type="text/css">
	.st0{fill:#1D1D1B;}
</style>
<g id="XMLID_1_">
	<g id="XMLID_34_">
		<path id="XMLID_38_" class="st0" d="M8,42.7c-0.1,3.9-1.7,12.4,3.6,13.3c2.4,0.4,5,0.3,7.5,0.6c3,0.3,5.9,0.7,8.9,0.7
			c3.2,0.1,3.2-4.9,0-5c-4.2-0.1-8.3-0.7-12.5-1.1c-0.5,0-2.4-0.5-2.7-0.1c-0.8-0.1-0.7,0.2,0.4,1c0-0.6-0.1-1.1-0.1-1.7
			c-0.1-2.6-0.2-5.1-0.1-7.7C13,39.5,8,39.5,8,42.7L8,42.7z"/>
	</g>
</g>
<g id="XMLID_18_">
	<g id="XMLID_20_">
		<path id="XMLID_29_" class="st0" d="M49.9,43.9c-0.1,2.4,0,4.8,0,7.2c0.1,1.7-0.1,4.1,1.2,5.4c1.6,1.7,4.6,1.1,6.6,1.1
			c3.1,0,6.3,0,9.4,0c3.2,0,3.2-5,0-5c-2.3,0-4.7,0-7,0c-1,0-2,0-2.9,0c-0.6,0-1.2,0-1.8,0c-1.2-0.3-1.5-0.1-0.8,0.5
			c0.5,0.8,0.6,0.7,0.4-0.3c0-0.3,0-0.6,0-0.9c0-0.9-0.1-1.8-0.1-2.7c0-1.8,0-3.6,0-5.3C55,40.7,50,40.7,49.9,43.9L49.9,43.9z"/>
	</g>
</g>
<g id="XMLID_3_">
	<g id="XMLID_19_">
		<path id="XMLID_33_" class="st0" d="M53.4,46.7c5.3,0.5,10.6,1,15.9,1.4c1.4,0.1,2.4-1.3,2.5-2.5c0.4-4.1,0.8-8.2,1.2-12.3
			c-0.8,0.8-1.7,1.7-2.5,2.5c1,0.1,3.5,2.9,4.3,3.6c1.3,1.2,2.6,2.4,3.9,3.6c2.2,2.1,5.5,4.7,6.8,7.6c0-0.8,0-1.7,0-2.5
			c-1.4,3-4.8,5.8-7,8.2c-2.5,2.7-4.9,5.4-7.1,8.2c1.3,0.2,2.6,0.3,3.9,0.5c-1.8-3.7-3.8-7.3-5.5-11.1c-1.3-2.9-5.6-0.4-4.3,2.5
			c1.7,3.8,3.7,7.4,5.5,11.1c0.7,1.3,3,1.7,3.9,0.5c3.3-4.2,7-8,10.6-12c1.9-2.2,5.3-4.8,4.3-7.9c-1.1-3.5-6.2-7.3-8.8-9.8
			c-3-2.8-6.1-7.1-10.4-7.5c-1.4-0.1-2.4,1.3-2.5,2.5c-0.4,4.1-0.8,8.2-1.2,12.3c0.8-0.8,1.7-1.7,2.5-2.5c-5.3-0.5-10.6-1-15.9-1.4
			C50.2,41.4,50.2,46.4,53.4,46.7L53.4,46.7z"/>
	</g>
</g>
<g id="XMLID_2_">
	<g id="XMLID_22_">
		<path id="XMLID_26_" class="st0" d="M10.8,44.9c6.1,0.1,12.2,0.2,18.3,0.3c1.2,0,2.6-1.2,2.5-2.5c-0.5-4.8-0.9-9.6-1-14.4
			c-1.3,0.7-2.5,1.4-3.8,2.2c3.3,1.6,5.7,5,8.1,7.7c2,2.3,5.6,5.2,6.7,8c1.2,3.2-2.8,8-4.3,10.6c-1.8,3.1-3.7,6.2-5.6,9.2
			c1.5,0.2,3,0.4,4.6,0.6c-0.4-2.5-0.8-5.1-1.2-7.6c-0.2-1.6-0.2-4.1-1.3-5.5c-2-2.3-5.9-1.6-8.6-1.6c-3.2-0.1-3.2,4.9,0,5
			c1.8,0,4.1-0.2,5.8,0.3c-0.6-0.6-1.2-1.2-1.7-1.7c1.5,3.7,1.6,8.5,2.2,12.5c0.4,2.3,3.5,2.3,4.6,0.6c2.7-4.3,5.3-8.7,7.8-13.1
			c1.5-2.7,4.5-6.2,3.5-9.4c-1.1-3.6-5.3-7.2-7.7-10.1c-3-3.5-6-7.7-10.2-9.8c-1.6-0.8-3.8,0.2-3.8,2.2c0.1,4.8,0.5,9.6,1,14.4
			c0.8-0.8,1.7-1.7,2.5-2.5C23,40.1,16.9,40,10.8,39.9C7.6,39.9,7.6,44.9,10.8,44.9L10.8,44.9z"/>
	</g>
</g>
</svg>
