<?xml version="1.0" encoding="utf-8"?>
<!-- Generator: Adobe Illustrator 19.0.0, SVG Export Plug-In . SVG Version: 6.00 Build 0)  -->
<svg version="1.1" xmlns="http://www.w3.org/2000/svg" xmlns:xlink="http://www.w3.org/1999/xlink" x="0px" y="0px"
	 viewBox="-269 191 100 100" style="enable-background:new -269 191 100 100;" xml:space="preserve">
<style type="text/css">
	.st0{fill:#FFFFFF;}
</style>
<g id="Calque_1">
	<path class="st0" d="M-198.6,271.6c3.4-7.1,4.2-15.9,2.9-24.8c-0.5-3.6-1.4-6.9-2.6-9.9c2.6-0.1,5-1.1,6.9-3.1
		c3.5-3.6,5.2-10,3.6-15.2l6.9-0.5c1.5-0.1,2.9-1.6,3-3c0.1-1.5-1.2-2.7-2.7-2.6l-9.1,0.7l0.5-9.1c0.1-1.5-1.2-2.7-2.7-2.6
		s-2.9,1.6-3,3l-0.4,6.9c-5.3-1.6-11.7,0.2-15.2,3.8c-2,2-3,4.4-3,7c-2.9-1-6.3-2-9.9-2.5c-9-1.3-17.8-0.1-24.7,3.2
		c-7.4,3.6-11.4,12.2-8.8,19.4c0.6,1.7,1.7,3.2,2.9,4.5c1.5,1.5,3.3,2.5,5.2,3.1c-4.1,7.4-4.5,15.1-0.7,20.4l-5.6,5.7
		c-1.2,1.2-1.3,2.9-0.2,3.9c1,1,2.8,0.9,3.9-0.3l5.6-5.7c5.4,3.8,13.2,3.4,20.4-1c0.6,1.9,1.6,3.7,3.1,5.2c1.3,1.3,2.7,2.1,4.4,2.8
		C-210.6,283.2-202,279.2-198.6,271.6L-198.6,271.6z M-194.8,218.3c3.1,3.1,2.4,9.2-0.3,11.9c-3.3,3.3-8.3-1.1-9.2-2l0,0
		c-1-1-5.6-5.7-2.2-9.2C-204,216-198,215.2-194.8,218.3L-194.8,218.3z M-234.6,246.5l12,11.8l-2,4.1l-14-13.8L-234.6,246.5z
		 M-228.7,243.8l4-2l6.7,6.6l-2,4.1L-228.7,243.8z M-219,239l6.9-3.3l-3.2,7L-219,239z M-249.8,242.2c-0.8-0.8-1.4-1.6-1.7-2.7
		c-1.5-4.3,0.8-9.6,5.3-11.7c12.1-5.8,28.4-2.5,34.6,1.8l-13.1,6.3l0,0l-9.7,4.7l0,0l-5.9,2.8C-243.8,245-247.5,244.5-249.8,242.2
		L-249.8,242.2z M-243.5,267.7c-3.8-3.8-3.8-10-0.3-16.2l16.5,16.3C-233.6,271.5-239.7,271.5-243.5,267.7L-243.5,267.7z
		 M-215.3,275.2c-1.1-0.3-2-1-2.7-1.6c-2.3-2.3-2.8-5.9-1.3-9.4l2.7-6l0,0l4.3-9.3c0.3-0.3,0.4-0.6,0.5-1l6-12.8
		c4.3,6.3,7.8,22.5,2.3,34.6C-205.8,274.4-211,276.9-215.3,275.2L-215.3,275.2z"/>
</g>
<g id="Calque_2">
</g>
</svg>
