<?xml version="1.0" encoding="utf-8"?>
<!-- Generator: Adobe Illustrator 21.0.0, SVG Export Plug-In . SVG Version: 6.00 Build 0)  -->
<svg version="1.1" id="Calque_1" xmlns="http://www.w3.org/2000/svg" xmlns:xlink="http://www.w3.org/1999/xlink" x="0px" y="0px"
	 viewBox="0 0 100 100" style="enable-background:new 0 0 100 100;" xml:space="preserve">
<path d="M71.3,52.7c-1.6-4-5-7.7-9.4-10.6c-1.8-1.2-3.6-2.1-5.4-2.8c1.1-1,1.7-2.3,1.7-3.8c0-2.7-2-5.8-5-7.2l2.8-2.8
	c0.6-0.6,0.6-1.7,0-2.3c-0.6-0.6-1.7-0.6-2.3,0L50,26.9l-3.7-3.7c-0.6-0.6-1.7-0.6-2.3,0s-0.6,1.7,0,2.3l2.8,2.8c-3,1.4-5,4.5-5,7.2
	c0,1.5,0.6,2.8,1.7,3.8c-1.7,0.7-3.6,1.6-5.4,2.8c-4.5,2.9-7.8,6.7-9.4,10.6c-1.7,4.2,0.3,9,4.5,10.8c1,0.4,2.1,0.6,3.2,0.6
	c1.3,0,2.5-0.3,3.6-0.8c1.4,4.4,4.5,7.5,8.5,8.1v4.3c0,0.9,0.7,1.6,1.6,1.6c0.9,0,1.6-0.7,1.6-1.6v-4.3c4-0.6,7.2-3.7,8.5-8.1
	c1.1,0.5,2.3,0.8,3.6,0.8c1.1,0,2.1-0.2,3.1-0.6C71.1,61.7,73.1,56.9,71.3,52.7L71.3,52.7z M50,30.8c2.7,0,5,2.6,5,4.7
	c0,2.5-4.1,2.7-4.9,2.7l0,0c-0.9,0-4.9-0.1-4.9-2.7C45,33.4,47.3,30.8,50,30.8L50,30.8z M44.8,56.7h10.3L56,59H43.9L44.8,56.7z
	 M46.2,53.4l0.9-2.3h5.8l0.9,2.3H46.2z M48.4,47.9L50,44l1.6,3.9H48.4z M36.3,60.8c-0.7,0-1.3-0.1-1.9-0.4c-2.5-1.1-3.8-4-2.7-6.5
	c2.8-6.8,11.3-11.7,15.9-12.4l-3,7.4l0,0l-2.2,5.5l0,0L41,57.7C40.1,59.6,38.3,60.8,36.3,60.8L36.3,60.8z M50,68.2
	c-3.3,0-6-2.4-7.1-6.1h14.2C56,65.9,53.3,68.2,50,68.2L50,68.2z M65.6,60.4c-0.6,0.3-1.3,0.4-1.9,0.4c-2,0-3.8-1.2-4.6-3.1l-1.4-3.3
	l0,0l-2.1-5.2c0-0.2-0.1-0.4-0.2-0.6l-2.9-7.2c4.6,0.8,13.1,5.7,15.9,12.4C69.4,56.5,68.2,59.4,65.6,60.4L65.6,60.4z"/>
<g>
	<path d="M72.5,88.9h-45L5.1,50l22.5-38.9h45L95,50L72.5,88.9z M29.8,84.9h40.3L90.3,50L70.2,15.1H29.8L9.7,50L29.8,84.9z"/>
</g>
</svg>
