<?xml version="1.0" encoding="utf-8"?>
<!-- Generator: Adobe Illustrator 19.0.0, SVG Export Plug-In . SVG Version: 6.00 Build 0)  -->
<svg version="1.1" id="Calque_1" xmlns="http://www.w3.org/2000/svg" xmlns:xlink="http://www.w3.org/1999/xlink" x="0px" y="0px"
	 viewBox="0 0 99.2 99.2" style="enable-background:new 0 0 99.2 99.2;" xml:space="preserve">
<style type="text/css">
	.st0{fill:#1D1D1B;}
</style>
<g id="XMLID_1_">
	<g id="XMLID_69_">
		<path id="XMLID_73_" class="st0" d="M60.5,34.2c0.6,6.6-3.7,8.1-9.4,8c-1.4,0-3.6,0-4.9-0.6c-2.3-1.3-3.8-4.5-3.8-7
			c0-4.8,4.3-9.4,9.3-8.6c4.4,0.7,8,4.8,8.9,8.9c0.6,2.8,4.9,1.6,4.2-1.2c-1.5-6.7-8.2-12.9-15.4-12.2c-6.8,0.7-11.9,7.7-11.2,14.4
			c0.3,3.1,2,6.1,4.4,8.2c2.8,2.4,5.9,2.3,9.4,2.4c3.5,0,6.8,0.1,9.5-2.4c2.7-2.6,3.7-6.3,3.5-10C64.6,31.4,60.2,31.4,60.5,34.2z"/>
	</g>
</g>
<g id="XMLID_2_">
	<g id="XMLID_63_">
		<path id="XMLID_67_" class="st0" d="M55.7,46.2c8.6,5.9,7.1,18.5,7.2,27.6c0,2.8,4.4,2.8,4.4,0c-0.1-11,1-24.3-9.3-31.4
			C55.6,40.9,53.4,44.6,55.7,46.2L55.7,46.2z"/>
	</g>
</g>
<g id="XMLID_3_">
	<g id="XMLID_56_">
		<path id="XMLID_61_" class="st0" d="M45.7,42c-13.7,0.9-14.5,18.9-13.6,29c0.5,5.9,6.7,5.7,11.8,6.4c7.3,1,13.9-1,21.1-1.2
			c2.8-0.1,2.8-4.4,0-4.4c-8.3,0.2-17.9,3.8-26,0.2c-4.2-1.9-2.8-8.7-2.4-12.8c0.5-5.1,2.8-12.5,9-13C48.5,46.1,48.5,41.8,45.7,42
			L45.7,42z"/>
	</g>
</g>
</svg>
