<?xml version="1.0" encoding="utf-8"?>
<!-- Generator: Adobe Illustrator 19.0.0, SVG Export Plug-In . SVG Version: 6.00 Build 0)  -->
<svg version="1.1" id="Calque_1" xmlns="http://www.w3.org/2000/svg" xmlns:xlink="http://www.w3.org/1999/xlink" x="0px" y="0px"
	 viewBox="0 0 99.2 99.2" style="enable-background:new 0 0 99.2 99.2;" xml:space="preserve">
<style type="text/css">
	.st0{fill:#1D1D1B;}
</style>
<g id="XMLID_1_">
	<g id="XMLID_21_">
		<path id="XMLID_40_" class="st0" d="M21.4,47.8c-2.6-5.1,0.3-11.4,6.3-11.7c2.5-0.1,5.5,0.9,6.8,3.3c1.6,2.9,0.8,10.1-3.5,10.6
			c-1.9,0.2-3.6,2.7-1.8,4.3c2.8,2.4,5.9,4.1,7.6,7.5c1.9,3.9,3.5,8.2,3.5,12.6c0,3.2,5,3.2,5,0c0-4.9-1.6-9.3-3.6-13.8
			c-2-4.7-5.2-6.6-9-9.8c-0.6,1.4-1.2,2.8-1.8,4.3c11.9-1.3,12.1-19.7,1.3-23.2C20.7,28,11.9,40.1,17.1,50.3
			C18.5,53.2,22.8,50.7,21.4,47.8L21.4,47.8z"/>
	</g>
</g>
<g id="XMLID_3_">
	<g id="XMLID_24_">
		<path id="XMLID_28_" class="st0" d="M17.4,48.4c-7.2,7.3-7.3,17.3-6.7,27c0.1,1.2,1.1,2.7,2.5,2.5c6.5-0.7,13-0.6,19.5-0.8
			c2.9-0.1,6.7-0.9,9.4-0.5c3.1,0.5,4.5-4.3,1.3-4.8c-3.3-0.5-6.8,0.1-10.1,0.3c-6.7,0.2-13.4,0.1-20.1,0.8c0.8,0.8,1.7,1.7,2.5,2.5
			c-0.5-8.2-1-17.2,5.3-23.4C23.2,49.6,19.6,46.1,17.4,48.4L17.4,48.4z"/>
	</g>
</g>
<g id="XMLID_18_">
	<g id="XMLID_29_">
		<path id="XMLID_33_" class="st0" d="M85.5,50.3c5.2-10.2-3.7-22.4-15.2-18.6c-10.8,3.5-10.6,21.9,1.3,23.2
			c-0.6-1.4-1.2-2.8-1.8-4.3c-3.7,3.2-6.9,5.1-9,9.8c-2,4.5-3.6,8.9-3.6,13.8c0,3.2,5,3.2,5,0c0-4.4,1.5-8.7,3.5-12.6
			c1.7-3.4,4.8-5.1,7.6-7.5c1.8-1.6,0.2-4.1-1.8-4.3c-4.4-0.5-5.1-7.6-3.5-10.6c1.3-2.3,4.3-3.4,6.8-3.3c6,0.3,8.8,6.7,6.3,11.7
			C79.7,50.7,84,53.2,85.5,50.3L85.5,50.3z"/>
	</g>
</g>
<g id="XMLID_4_">
	<g id="XMLID_34_">
		<path id="XMLID_38_" class="st0" d="M81.6,51.9c6.2,6.3,5.8,15.2,5.3,23.4c0.8-0.8,1.7-1.7,2.5-2.5c-6.7-0.7-13.4-0.6-20.1-0.8
			c-3.3-0.1-6.8-0.7-10.1-0.3c-3.2,0.5-1.8,5.3,1.3,4.8c2.6-0.4,6.4,0.4,9.4,0.5c6.6,0.1,13,0,19.5,0.8c1.4,0.2,2.4-1.3,2.5-2.5
			c0.6-9.7,0.5-19.7-6.7-27C82.9,46.1,79.3,49.6,81.6,51.9L81.6,51.9z"/>
	</g>
</g>
<g id="XMLID_2_">
	<g id="XMLID_41_">
		<path id="XMLID_45_" class="st0" d="M44.5,45.3c2.1-1.3,4.2-2.5,6.4-3.7c2.8-1.5,0.3-5.9-2.5-4.3c-2.2,1.2-4.3,2.4-6.4,3.7
			C39.2,42.7,41.7,47,44.5,45.3L44.5,45.3z"/>
	</g>
</g>
<g id="XMLID_8_">
	<g id="XMLID_62_">
		<path id="XMLID_66_" class="st0" d="M52.5,47.3c2.4-0.6,4.8-1.1,7.2-1.5c1.3-0.3,2.1-1.8,1.7-3.1c-0.4-1.4-1.7-2-3.1-1.7
			c-2.4,0.5-4.8,1-7.2,1.5C48,43.3,49.3,48.1,52.5,47.3L52.5,47.3z"/>
	</g>
</g>
<g id="XMLID_7_">
	<g id="XMLID_55_">
		<path id="XMLID_59_" class="st0" d="M56.3,56.2c1.7-1.4,3.5-2.8,5.3-4.2c1.1-0.8,1.6-2.2,0.9-3.4c-0.6-1.1-2.3-1.7-3.4-0.9
			c-2.1,1.6-4.3,3.2-6.3,4.9c-1,0.9-0.9,2.6,0,3.5C53.8,57.2,55.2,57,56.3,56.2L56.3,56.2z"/>
	</g>
</g>
<g id="XMLID_6_">
	<g id="XMLID_48_">
		<path id="XMLID_52_" class="st0" d="M41.9,53.6c2.2,0.2,4.4,0.5,6.7,0.9c1.3,0.2,2.7-0.3,3.1-1.7c0.3-1.2-0.4-2.9-1.7-3.1
			c-2.7-0.4-5.3-0.8-8-1.1c-1.3-0.1-2.5,1.3-2.5,2.5C39.4,52.6,40.5,53.5,41.9,53.6L41.9,53.6z"/>
	</g>
</g>
</svg>
