<?xml version="1.0" encoding="utf-8"?>
<!-- Generator: Adobe Illustrator 19.0.0, SVG Export Plug-In . SVG Version: 6.00 Build 0)  -->
<svg version="1.1" id="Calque_1" xmlns="http://www.w3.org/2000/svg" xmlns:xlink="http://www.w3.org/1999/xlink" x="0px" y="0px"
	 viewBox="0 0 99.2 99.2" style="enable-background:new 0 0 99.2 99.2;" xml:space="preserve">
<style type="text/css">
	.st0{fill:#1D1D1B;}
</style>
<g id="XMLID_1_">
	<g id="XMLID_17_">
		<path id="XMLID_21_" class="st0" d="M37.3,34.5C38.6,27,46,18,54.3,23.3c6.2,4,9.6,14.9,9.5,21.8c-0.2,7.5-2.6,15.1-3.9,22.5
			c-0.7,4.1-2.2,8.6-7.2,8.8c-4.8,0.2-8.1-3.7-10.1-7.5c-1.5-2.8-5.8-0.3-4.3,2.5c4.2,7.8,15.1,14.4,22.7,6.6
			c3.9-4,3.8-10.3,4.9-15.4c1.3-6.3,3.2-12.6,3-19.2C68.5,34.2,63,20,53.1,17.4c-10.6-2.8-19,5.9-20.6,15.7
			C32,36.3,36.8,37.7,37.3,34.5L37.3,34.5z"/>
	</g>
</g>
<g id="XMLID_2_">
	<g id="XMLID_15_">
		<path id="XMLID_24_" class="st0" d="M41.1,48.6c0.7-0.1,2.1-0.5,2.8,0.1c0.7,0.6,0.1,2.1-0.1,2.8c-0.2,0.5-1.2,2.2-1.1,2.7
			c-0.2,0.4,0,0.3,0.4-0.4c-0.2,0-0.4,0-0.5,0c-0.5-0.2-1.2,0.1-1.7,0.2c-3.2,0.6-1.8,5.4,1.3,4.8c0.8-0.1,1.7,0.1,2.5-0.1
			c1-0.3,1.8-1,2.3-2c1-1.8,1.8-4.1,2.1-6.1c0.6-5-3.4-7.6-8-7C38,43.9,37.9,49,41.1,48.6L41.1,48.6z"/>
	</g>
</g>
<g id="XMLID_3_">
	<g id="XMLID_27_">
		<path id="XMLID_31_" class="st0" d="M45.9,38.5c0.7-2.8,1.5-4.9,4.7-4.7c2.7,0.2,3.2,1.4,3.7,4c0.7,3.2-0.6,6.5-1.7,9.4
			c-0.9,2.3-2,4.5-2.9,6.8c-0.8,2.2-1.1,8-4,8.6c-3.2,0.6-1.8,5.4,1.3,4.8c5.9-1.1,5.8-7.5,7.5-12.1c2.2-5.9,5.8-11.6,4.8-18.2
			c-0.7-4.4-3.6-8.8-8.4-9.1c-5.4-0.3-8.7,4.4-9.8,9.1C40.4,40.3,45.2,41.7,45.9,38.5L45.9,38.5z"/>
	</g>
</g>
</svg>
