<?xml version="1.0" encoding="utf-8"?>
<!-- Generator: Adobe Illustrator 19.0.0, SVG Export Plug-In . SVG Version: 6.00 Build 0)  -->
<svg version="1.1" id="Calque_1" xmlns="http://www.w3.org/2000/svg" xmlns:xlink="http://www.w3.org/1999/xlink" x="0px" y="0px"
	 viewBox="0 0 99.2 99.2" style="enable-background:new 0 0 99.2 99.2;" xml:space="preserve">
<style type="text/css">
	.st0{fill:#1D1D1B;}
</style>
<g id="XMLID_1_">
	<g id="XMLID_13_">
		<path id="XMLID_17_" class="st0" d="M28.9,65.3c4.7-9.6,9.3-19.2,13.4-29.1c1.1-2.7,2.2-5.8,4.3-7.9c3.3-3.3,7.1-2.1,11-1
			c2.5,0.7,5.9,1.1,8.2,2.3c3.1,1.7,4.4,4.7,5.9,7.6c1.1,2.1,4.4,0.2,3.2-1.9c-1.3-2.5-2.5-5.6-4.6-7.5c-1.9-1.7-4.5-2.2-6.9-2.8
			c-5.9-1.7-12.5-4.8-18-0.6c-5.2,3.9-7,11.6-9.5,17.2c-3.2,7.4-6.8,14.6-10.3,21.8C24.6,65.6,27.8,67.5,28.9,65.3L28.9,65.3z"/>
	</g>
</g>
<g id="XMLID_4_">
	<g id="XMLID_22_">
		<path id="XMLID_26_" class="st0" d="M25.4,64.8c0.1,6,3.6,9.2,9.4,10.6c7.5,1.7,13.6,4.1,21.2,1.4c2.1-0.7,3.8-1.3,5-3.2
			c1.9-2.8,2.8-7,4.1-10.1c3.6-8.8,7.2-17.7,10.2-26.7c0.8-2.3-2.9-3.3-3.6-1c-3.7,11.2-8.3,22-12.7,32.9c-1.3,3.3-2,4-5.6,5
			c-3.5,1-6.4,0.9-9.9-0.2c-5.3-1.7-14.2-1.3-14.3-8.7C29.1,62.4,25.3,62.3,25.4,64.8L25.4,64.8z"/>
	</g>
</g>
<g id="XMLID_3_">
	<g id="XMLID_27_">
		<path id="XMLID_31_" class="st0" d="M38.1,47.3c4-3.2,9.7-1.7,14.1-0.5c3.6,0.9,10.9,2.5,12,6.7c0.6,2.3,4.2,1.3,3.6-1
			c-1.5-5.8-9.7-8-14.6-9.3c-6.1-1.6-12.6-2.8-17.8,1.5C33.5,46.1,36.2,48.8,38.1,47.3L38.1,47.3z"/>
	</g>
</g>
</svg>
