<?xml version="1.0" encoding="utf-8"?>
<!-- Generator: Adobe Illustrator 19.0.0, SVG Export Plug-In . SVG Version: 6.00 Build 0)  -->
<svg version="1.1" id="Calque_1" xmlns="http://www.w3.org/2000/svg" xmlns:xlink="http://www.w3.org/1999/xlink" x="0px" y="0px"
	 viewBox="0 0 99.2 99.2" style="enable-background:new 0 0 99.2 99.2;" xml:space="preserve">
<style type="text/css">
	.st0{fill:#1D1D1B;}
</style>
<g id="XMLID_1_">
	<g id="XMLID_13_">
		<path id="XMLID_17_" class="st0" d="M43,47c-2.5-2.3-5.1-4.7-7.6-7c-2.4-2.3-5.8-4.7-7.6-7.5c0,0.8,0,1.7,0,2.5
			c1-1.9,3.5-5.1,5.8-5c1.6,0.1,4.3,3.3,5.6,4.4c3.3,2.8,6.3,5.8,9.1,9c2.1,2.4,5.7-1.1,3.5-3.5C48,35.4,43.7,31.4,39,27.7
			c-4.3-3.3-6.5-5.2-10.6-1c-2.7,2.8-6.8,5.7-3.9,9.5c3.9,5.3,10.2,9.8,15,14.2C41.9,52.7,45.4,49.1,43,47L43,47z"/>
	</g>
</g>
<g id="XMLID_3_">
	<g id="XMLID_20_">
		<path id="XMLID_24_" class="st0" d="M51.9,43.5c2.3-2.6,4.6-5.1,6.9-7.7c2.2-2.4,4.7-5.9,7.4-7.6c-0.8,0-1.7,0-2.5,0
			c1.1,0.6,4.6,3,5,4.2c0.7,2-2.1,4.6-3.2,5.9c-2.7,3.4-5.7,6.5-8.9,9.4c-2.4,2.2,1.2,5.7,3.5,3.5c4.2-3.8,7.9-7.9,11.3-12.5
			c3.2-4.4,4.6-6.5,0.3-10.5c-2.8-2.5-5.6-6.5-9.3-3.6c-5.2,4.1-9.6,10.2-14,15.2C46.3,42.4,49.8,46,51.9,43.5L51.9,43.5z"/>
	</g>
</g>
<g id="XMLID_18_">
	<g id="XMLID_34_">
		<path id="XMLID_38_" class="st0" d="M56.7,51.4c2.6,2.4,5,4.9,7.3,7.5c2.3,2.5,5.6,5.1,7.3,7.9c0-0.8,0-1.7,0-2.5
			c-1,1.9-3.5,5.1-5.8,5c-1.6-0.1-4.3-3.3-5.6-4.4c-3.3-2.8-6.3-5.8-9.1-9c-2.1-2.4-5.7,1.1-3.5,3.5c3.9,4.5,8.2,8.5,12.9,12.1
			c4.9,3.8,6.8,5,11.2,0.3c3-3.3,6.1-5.5,2.7-9.4c-4.4-5-9.1-9.9-13.9-14.4C57.8,45.6,54.3,49.2,56.7,51.4L56.7,51.4z"/>
	</g>
</g>
<g id="XMLID_4_">
	<g id="XMLID_29_">
		<path id="XMLID_33_" class="st0" d="M47.3,55.7c-2.3,2.6-4.6,5.1-6.9,7.7c-2.2,2.4-4.6,5.9-7.4,7.6c0.8,0,1.7,0,2.5,0
			c-1.8-0.9-5.3-3.5-5.1-5.7c0.1-1.4,2.9-4,3.8-5.2c2.7-3.4,5.7-6.6,8.9-9.5c2.4-2.2-1.2-5.7-3.5-3.5c-4.3,3.9-8.1,8.3-11.5,13
			c-3.1,4.3-5.1,6.6-0.8,10.6c2.8,2.6,5.7,6.8,9.6,3.9c5.2-4,9.7-10.3,14-15.2C53,56.8,49.4,53.3,47.3,55.7L47.3,55.7z"/>
	</g>
</g>
</svg>
