<?xml version="1.0" encoding="utf-8"?>
<!-- Generator: Adobe Illustrator 19.0.0, SVG Export Plug-In . SVG Version: 6.00 Build 0)  -->
<svg version="1.1" id="Calque_1" xmlns="http://www.w3.org/2000/svg" xmlns:xlink="http://www.w3.org/1999/xlink" x="0px" y="0px"
	 viewBox="0 0 99.2 99.2" style="enable-background:new 0 0 99.2 99.2;" xml:space="preserve">
<style type="text/css">
	.st0{fill:#1D1D1B;}
</style>
<g id="XMLID_1_">
	<g id="XMLID_62_">
		<path id="XMLID_66_" class="st0" d="M26.6,36.6c0.2,7.6,0.4,15.2,0.8,22.8c0.2,3.8,0.4,7.6,0.7,11.4c0.2,2.3-0.3,6.6,1.3,8.6
			c2.9,3.8,12,3.9,16.4,4.3c7.5,0.6,15.1,0.1,22.6-0.4c3.2-0.2,3.2-5.2,0-5c-6,0.4-12.1,0.8-18.1,0.7c-4.8-0.1-15.6,0.3-17-5.3
			c-1.4-5.5-0.8-12.4-1-18c-0.3-6.3-0.5-12.7-0.6-19C31.5,33.4,26.5,33.4,26.6,36.6L26.6,36.6z"/>
	</g>
</g>
<g id="XMLID_2_">
	<g id="XMLID_56_">
		<path id="XMLID_60_" class="st0" d="M27.8,38.3c3.8,2.5,7.6,5,11.4,7.6c1.3,0.8,3.4,0.1,3.7-1.5c1.5-8.6,2.9-17.3,4.4-25.9
			c0.4-2.3-2.3-4.4-4.2-2.4c-5.4,5.5-10.4,11.3-15.2,17.3c-2,2.5,1.5,6.1,3.5,3.5c4.8-6,9.8-11.8,15.2-17.3
			c-1.4-0.8-2.8-1.6-4.2-2.4C41,25.7,39.5,34.4,38.1,43c1.2-0.5,2.4-1,3.7-1.5c-3.8-2.5-7.6-5-11.4-7.6
			C27.7,32.2,25.2,36.5,27.8,38.3L27.8,38.3z"/>
	</g>
</g>
<g id="XMLID_3_">
	<g id="XMLID_50_">
		<path id="XMLID_54_" class="st0" d="M45.2,20.3c7.7,0,15.4-0.1,23.1-0.1c3.2,0,3.2-5,0-5c-7.7,0-15.4,0.1-23.1,0.1
			C42,15.4,42,20.4,45.2,20.3L45.2,20.3z"/>
	</g>
</g>
<g id="XMLID_4_">
	<g id="XMLID_44_">
		<path id="XMLID_48_" class="st0" d="M65.9,18.4c1.8,10.8,1.8,21.9,1.7,32.7c0,10-0.5,19.7-1.8,29.6c-0.4,3.2,4.6,3.2,5,0
			c2.7-20.7,3.4-43-0.1-63.7C70.2,13.9,65.4,15.3,65.9,18.4L65.9,18.4z"/>
	</g>
</g>
<g id="XMLID_5_">
	<g id="XMLID_38_">
		<path id="XMLID_42_" class="st0" d="M48,37.8c3.9,0,7.7,0.1,11.5,0.4c3.2,0.2,3.2-4.8,0-5c-3.8-0.2-7.7-0.4-11.5-0.4
			C44.7,32.8,44.7,37.8,48,37.8L48,37.8z"/>
	</g>
</g>
<g id="XMLID_6_">
	<g id="XMLID_32_">
		<path id="XMLID_36_" class="st0" d="M46.9,48.3c4.7,0,9.4,0,14.1,0c3.2,0,3.2-5,0-5c-4.7,0-9.4,0-14.1,0
			C43.7,43.3,43.7,48.3,46.9,48.3L46.9,48.3z"/>
	</g>
</g>
<g id="XMLID_7_">
	<g id="XMLID_27_">
		<path id="XMLID_31_" class="st0" d="M36.5,58.8c8.8,0.3,17.7,0.6,26.5,0.9c3.2,0.1,3.2-4.9,0-5c-8.8-0.3-17.7-0.6-26.5-0.9
			C33.3,53.7,33.3,58.7,36.5,58.8L36.5,58.8z"/>
	</g>
</g>
<g id="XMLID_9_">
	<g id="XMLID_37_">
		<path id="XMLID_61_" class="st0" d="M38,71.1c7.5-0.1,15-0.3,22.5-0.4c3.2-0.1,3.2-5.1,0-5c-7.5,0.1-15,0.3-22.5,0.4
			C34.8,66.2,34.8,71.2,38,71.1L38,71.1z"/>
	</g>
</g>
</svg>
