<?xml version="1.0" encoding="utf-8"?>
<!-- Generator: Adobe Illustrator 19.0.0, SVG Export Plug-In . SVG Version: 6.00 Build 0)  -->
<svg version="1.1" id="Calque_1" xmlns="http://www.w3.org/2000/svg" xmlns:xlink="http://www.w3.org/1999/xlink" x="0px" y="0px"
	 viewBox="0 0 99.2 99.2" style="enable-background:new 0 0 99.2 99.2;" xml:space="preserve">
<style type="text/css">
	.st0{fill:#1D1D1B;}
</style>
<g id="XMLID_1_">
	<g id="XMLID_69_">
		<path id="XMLID_73_" class="st0" d="M59.1,43.8c0.5,5.7-3.2,7-8.1,6.9c-1.2,0-3.1,0-4.2-0.5c-2-1.1-3.3-3.9-3.3-6
			c0-4.1,3.7-8.1,8-7.4c3.8,0.6,6.9,4.1,7.7,7.7c0.5,2.4,4.2,1.4,3.6-1c-1.3-5.8-7.1-11.1-13.3-10.5c-5.9,0.6-10.3,6.6-9.7,12.4
			c0.3,2.7,1.7,5.3,3.8,7.1c2.4,2.1,5.1,2,8.1,2.1c3,0,5.9,0.1,8.2-2.1c2.3-2.2,3.2-5.4,3-8.6C62.7,41.4,58.9,41.4,59.1,43.8z"/>
	</g>
</g>
<g id="XMLID_2_">
	<g id="XMLID_63_">
		<path id="XMLID_67_" class="st0" d="M55,54.2c7.4,5.1,6.1,16,6.2,23.8c0,2.4,3.8,2.4,3.8,0c-0.1-9.5,0.9-21-8-27.1
			C54.9,49.6,53,52.8,55,54.2L55,54.2z"/>
	</g>
</g>
<g id="XMLID_3_">
	<g id="XMLID_56_">
		<path id="XMLID_61_" class="st0" d="M46.4,50.5c-11.8,0.8-12.5,16.3-11.7,25c0.4,5.1,5.8,4.9,10.2,5.5c6.3,0.9,12-0.9,18.2-1
			c2.4-0.1,2.4-3.8,0-3.8c-7.2,0.2-15.4,3.3-22.4,0.2c-3.6-1.6-2.4-7.5-2.1-11c0.4-4.4,2.4-10.8,7.8-11.2
			C48.8,54.1,48.8,50.4,46.4,50.5L46.4,50.5z"/>
	</g>
</g>
<g id="XMLID_22_">
	<g id="XMLID_49_">
		<path id="XMLID_54_" class="st0" d="M83.8,37.9c0.5,5.7-3.2,7-8.1,6.9c-1.2,0-3.1,0-4.2-0.5c-2-1.1-3.3-3.9-3.3-6
			c0-4.1,3.7-8.1,8-7.4c3.8,0.6,6.9,4.1,7.7,7.7c0.5,2.4,4.2,1.4,3.6-1c-1.3-5.8-7.1-11.1-13.3-10.5c-5.9,0.6-10.3,6.6-9.7,12.4
			c0.3,2.7,1.7,5.3,3.8,7.1c2.4,2.1,5.1,2,8.1,2.1c3,0,5.9,0.1,8.2-2.1c2.3-2.2,3.2-5.4,3-8.6C87.4,35.6,83.6,35.5,83.8,37.9z"/>
	</g>
</g>
<g id="XMLID_13_">
	<g id="XMLID_47_">
		<path id="XMLID_68_" class="st0" d="M79.7,48.3c7.4,5.1,6.1,16,6.2,23.8c0,2.4,3.8,2.4,3.8,0c-0.1-9.5,0.9-21-8-27.1
			C79.6,43.7,77.7,47,79.7,48.3L79.7,48.3z"/>
	</g>
</g>
<g id="XMLID_9_">
	<g id="XMLID_76_">
		<path id="XMLID_80_" class="st0" d="M62.5,73.5c8.3,4.2,16.5,0.7,25.2,0.5c2.4,0,2.4-3.8,0-3.8c-7.7,0.1-16,3.7-23.3,0
			C62.2,69.2,60.3,72.4,62.5,73.5L62.5,73.5z"/>
	</g>
</g>
<g id="XMLID_6_">
	<g id="XMLID_39_">
		<path id="XMLID_74_" class="st0" d="M71,44.7c-7.2,0-10.7,7.6-11.5,13.7c-0.3,2.4,3.5,2.4,3.8,0c0.5-4.1,2.9-10,7.7-10
			C73.5,48.4,73.5,44.7,71,44.7L71,44.7z"/>
	</g>
</g>
<g id="XMLID_58_">
	<g id="XMLID_31_">
		<path id="XMLID_36_" class="st0" d="M35.3,31.8c0.5,5.7-3.2,7-8.1,6.9c-1.2,0-3.1,0-4.2-0.5c-2-1.1-3.3-3.9-3.3-6
			c0-4.1,3.7-8.1,8-7.4c3.8,0.6,6.9,4.1,7.7,7.7c0.5,2.4,4.2,1.4,3.6-1c-1.3-5.8-7.1-11.1-13.3-10.5c-5.9,0.6-10.3,6.6-9.7,12.4
			c0.3,2.7,1.7,5.3,3.8,7.1c2.4,2.1,5.1,2,8.1,2.1c3,0,5.9,0.1,8.2-2.1c2.3-2.2,3.2-5.4,3-8.6C38.8,29.4,35.1,29.4,35.3,31.8z"/>
	</g>
</g>
<g id="XMLID_8_">
	<g id="XMLID_43_">
		<path id="XMLID_51_" class="st0" d="M31.2,42.2c4.5,2.9,5.6,8.3,6,13.3c0.2,2.4,3.9,2.4,3.8,0c-0.5-6.4-2.1-12.9-7.8-16.6
			C31,37.6,29.2,40.9,31.2,42.2L31.2,42.2z"/>
	</g>
</g>
<g id="XMLID_7_">
	<g id="XMLID_25_">
		<path id="XMLID_29_" class="st0" d="M22,38.6C9.7,41.1,10.2,57,12.2,66.5c0.1,0.6,0.7,1.2,1.3,1.3c7.1,1.8,14.1,1.1,21.3,0.5
			c2.4-0.2,2.4-4,0-3.8c-5,0.5-10.1,1.1-15.1,0.6c-3.8-0.4-4.1,0-4.6-3.3c-0.2-1.3-0.3-2.7-0.3-4c-0.2-6.3,0.9-14.2,8.1-15.6
			C25.4,41.8,24.4,38.1,22,38.6L22,38.6z"/>
	</g>
</g>
</svg>
