<?xml version="1.0" encoding="utf-8"?>
<!-- Generator: Adobe Illustrator 19.0.0, SVG Export Plug-In . SVG Version: 6.00 Build 0)  -->
<svg version="1.1" id="Calque_1" xmlns="http://www.w3.org/2000/svg" xmlns:xlink="http://www.w3.org/1999/xlink" x="0px" y="0px"
	 viewBox="0 0 99.2 99.2" style="enable-background:new 0 0 99.2 99.2;" xml:space="preserve">
<style type="text/css">
	.st0{fill:#1D1D1B;}
</style>
<g id="XMLID_1_">
	<g id="XMLID_13_">
		<path id="XMLID_17_" class="st0" d="M35.3,30.1c0,6.5,0.2,13,0.7,19.6c0.4,5.5,0,12.3,1.6,17.5c0.9,3,3.1,3.9,6,2.8
			c5.4-2,10.6-6.4,15.4-9.5c2.6-1.7,5.2-3.4,7.7-5.1c1.6-1.1,4-2,5.1-3.6c2.1-3.1-1-5.8-3.3-7.7c-8.6-7.4-19.7-12-29.6-17.3
			c-2.8-1.5-5.4,2.8-2.5,4.3c5.7,3,11.3,6,17,9C58,42.7,65.4,46,67.9,51c0-0.8,0-1.7,0-2.5c-0.9,1.9-5.1,3.6-6.9,4.7
			c-2.3,1.5-4.6,3-7,4.5c-2.1,1.3-4.2,2.7-6.2,4c-1.2,0.8-5.2,4.3-6.9,3.6c0.6,0.6,1.2,1.2,1.7,1.7c-1.7-5.5-1.4-12.6-1.8-18.3
			c-0.4-6.2-0.6-12.4-0.6-18.6C40.3,26.9,35.3,26.9,35.3,30.1L35.3,30.1z"/>
	</g>
</g>
</svg>
