<?xml version="1.0" encoding="utf-8"?>
<!-- Generator: Adobe Illustrator 19.0.0, SVG Export Plug-In . SVG Version: 6.00 Build 0)  -->
<svg version="1.1" id="Calque_1" xmlns="http://www.w3.org/2000/svg" xmlns:xlink="http://www.w3.org/1999/xlink" x="0px" y="0px"
	 viewBox="0 0 99.2 99.2" style="enable-background:new 0 0 99.2 99.2;" xml:space="preserve">
<style type="text/css">
	.st0{fill:#1D1D1B;}
</style>
<g id="XMLID_1_">
	<g id="XMLID_15_">
		<path id="XMLID_19_" class="st0" d="M18.6,73.5c19-1.2,38-2.2,57-3.4c2.2-0.1,5.7,0.3,7-1.9c1.8-2.8,0.3-8.8,0.2-11.9
			c-0.1-4.6-0.3-9.1-0.4-13.7c-0.1-4,0.8-9.7-0.5-13.5c-0.9-2.6-2.8-3.2-5.3-3.4c-4.3-0.4-9,0.3-13.2,0.6
			c-9.7,0.7-19.3,1.9-28.8,3.6c-3.7,0.7-8.3,0.9-11.7,2.5c-2.7,1.3-2.7,3.1-3.1,5.9c-1.3,10.5-2.5,21.1-3.8,31.6
			c-0.4,3.2,4.6,3.2,5,0c0.9-7.9,1.9-15.8,2.8-23.7c0.6-4.7-0.2-8.3,4.6-10.1c3.1-1.1,7-1.4,10.2-2c7.5-1.3,15.2-2.2,22.8-2.8
			c3.8-0.3,7.6-0.5,11.3-0.6c0.6,0,3.7-0.5,4.3,0.1c0.4,0.3,0.2,5.3,0.2,5.9c0.2,7.5,0.4,15,0.7,22.5c0,1.4,0.7,4.3-0.2,5.4
			c-0.8,0.9-2.7,0.6-3.9,0.7c-3.7,0.2-7.3,0.4-11,0.7c-14.8,0.9-29.5,1.7-44.3,2.6C15.4,68.7,15.3,73.7,18.6,73.5L18.6,73.5z"/>
	</g>
</g>
<g id="XMLID_2_">
	<g id="XMLID_20_">
		<path id="XMLID_24_" class="st0" d="M21.9,38.5c6.3,7.6,13.5,14.2,21.5,20c1,0.7,2.2,0.3,3-0.4c10.9-9,21.7-18.1,32.6-27
			c2.5-2-1.1-5.6-3.5-3.5c-10.9,9-21.7,18.1-32.6,27c1-0.1,2-0.3,3-0.4c-7.7-5.5-14.5-12-20.5-19.3C23.3,32.5,19.8,36,21.9,38.5
			L21.9,38.5z"/>
	</g>
</g>
</svg>
