<?xml version="1.0" encoding="utf-8"?>
<!-- Generator: Adobe Illustrator 19.0.0, SVG Export Plug-In . SVG Version: 6.00 Build 0)  -->
<svg version="1.1" id="Calque_1" xmlns="http://www.w3.org/2000/svg" xmlns:xlink="http://www.w3.org/1999/xlink" x="0px" y="0px"
	 viewBox="0 0 99.2 99.2" style="enable-background:new 0 0 99.2 99.2;" xml:space="preserve">
<style type="text/css">
	.st0{fill:#1D1D1B;}
</style>
<g id="XMLID_1_">
	<g id="XMLID_13_">
		<path id="XMLID_17_" class="st0" d="M38.6,63.1c0.5-12.1,0.5-24.1,0-36.2c-0.6,0.6-1.2,1.2-1.9,1.9c5,0,10,0.1,15.1,0.4
			c2.5,0.2,5,0.4,7.5,0.6c1.2,0.1,2.5,0.3,3.7,0.4c1.6-0.2,2.3,0.5,1.9,2c1.6,3.9,0.4,10.5,0.5,14.7c0.1,4.5,0.4,9,1.3,13.5
			c0.5,2.4,4.1,1.4,3.6-1c-1.3-6.3-1.1-12.6-1.2-19c0-3,0.7-10.3-1.7-12.7c-2.3-2.3-9-1.8-11.9-2c-6.3-0.5-12.5-0.7-18.8-0.7
			c-1,0-1.9,0.9-1.9,1.9c0.6,12.1,0.6,24.1,0,36.2C34.8,65.6,38.5,65.5,38.6,63.1L38.6,63.1z"/>
	</g>
</g>
<g id="XMLID_2_">
	<g id="XMLID_28_">
		<path id="XMLID_39_" class="st0" d="M44.3,62.5c0.1-4.4,0.1-8.7,0.2-13.1c0.1-3.8-0.7-8.5,0.3-12.1c-0.6,0.5-1.2,0.9-1.8,1.4
			c2-0.3,4.3,0,6.4,0c1.7,0,3.6,0,5.3,0.1c2.2,0.2,3.8-0.1,4.5,2.3c0.9,2.8,0.2,6.7,0.3,9.6c0,3.5,0.1,6.9,0.1,10.4
			c0,2.4,3.8,2.4,3.8,0c0-5-0.1-10.1-0.1-15.1c0-2.6,0.4-6.6-1.3-8.8c-1.7-2.3-4.6-1.9-7.2-2c-3.7-0.2-8-0.6-11.7-0.1
			c-0.8,0.1-1.6,0.5-1.8,1.4c-1,3.5-0.4,7.7-0.5,11.2c-0.1,5-0.1,10-0.2,15C40.5,64.9,44.3,64.9,44.3,62.5L44.3,62.5z"/>
	</g>
</g>
<g id="XMLID_3_">
	<g id="XMLID_46_">
		<path id="XMLID_61_" class="st0" d="M40.6,62.5c0.2,4.5-0.6,14-7.6,11.4c-2.5-1-4.8-4.4-4.4-7.1c0.4-3.3,4.6-4.5,6.9-2.3
			c1.7,1.7,4.4-1,2.7-2.7c-3.2-3.1-8.1-2.9-11.2,0.2c-3.5,3.5-2.3,9.1,0.7,12.6c3,3.5,8.4,4.7,12.4,1.9c4.1-2.9,4.5-9.3,4.3-13.9
			C44.2,60.1,40.5,60.1,40.6,62.5L40.6,62.5z"/>
	</g>
</g>
<g id="XMLID_4_">
	<g id="XMLID_34_">
		<path id="XMLID_38_" class="st0" d="M66.7,60.2c0.3,2.3,1.1,5.1,0.7,7.5c-0.5,3.6-5.8,3.9-8.6,4c-3.2,0.1-4.3-2.6-4.3-5.5
			c0-2.8,3.1-4.8,5.8-3.5c2.1,1.1,4.1-2.2,1.9-3.2c-3.3-1.7-8.7-0.7-10.6,2.8c-1.8,3.2-0.8,8.6,1.7,11.2c3.1,3.3,9.8,2.2,13.5,0.4
			c5.7-2.7,4.2-8.5,3.6-13.6C70.2,57.8,66.5,57.8,66.7,60.2L66.7,60.2z"/>
	</g>
</g>
<g id="XMLID_5_">
	<g id="XMLID_41_">
		<path id="XMLID_45_" class="st0" d="M26.4,27.6c0.3-3.7,4.4-4.8,7.5-4.6c2.4,0.1,2.4-3.6,0-3.8c-5.4-0.3-10.7,2.6-11.2,8.4
			C22.5,30,26.2,30,26.4,27.6L26.4,27.6z"/>
	</g>
</g>
<g id="XMLID_6_">
	<g id="XMLID_48_">
		<path id="XMLID_52_" class="st0" d="M18.6,32.4C17.7,22,26.5,13.8,36.9,16c2.4,0.5,3.4-3.1,1-3.6c-12.6-2.6-24.1,7.1-23,20.1
			C15.1,34.8,18.8,34.8,18.6,32.4L18.6,32.4z"/>
	</g>
</g>
<g id="XMLID_7_">
	<g id="XMLID_55_">
		<path id="XMLID_59_" class="st0" d="M73.8,68c-0.1,1.3,0.5,3.3-0.4,4.4c-0.9,1.1-2.6,1.6-3.9,1.8c-2.4,0.4-1.4,4,1,3.6
			c2.2-0.4,4.5-1.4,5.9-3.1c1.6-2,0.9-4.3,1.2-6.7C77.8,65.6,74,65.6,73.8,68L73.8,68z"/>
	</g>
</g>
<g id="XMLID_9_">
	<g id="XMLID_62_">
		<path id="XMLID_66_" class="st0" d="M79.2,66.2c1.6,6.3,1.7,15.5-6.4,17.1c-2.4,0.5-1.4,4.1,1,3.6c10.2-2,11.2-13.4,9.1-21.7
			C82.3,62.8,78.7,63.8,79.2,66.2L79.2,66.2z"/>
	</g>
</g>
</svg>
