<?xml version="1.0" encoding="utf-8"?>
<!-- Generator: Adobe Illustrator 19.0.0, SVG Export Plug-In . SVG Version: 6.00 Build 0)  -->
<svg version="1.1" id="Calque_1" xmlns="http://www.w3.org/2000/svg" xmlns:xlink="http://www.w3.org/1999/xlink" x="0px" y="0px"
	 viewBox="0 0 99.2 99.2" style="enable-background:new 0 0 99.2 99.2;" xml:space="preserve">
<style type="text/css">
	.st0{fill:#1D1D1B;}
</style>
<g id="XMLID_1_">
	<g id="XMLID_50_">
		<path id="XMLID_54_" class="st0" d="M23,42.3c-0.3-3.8,0.9-5.6,4.7-6.8c3-0.9,6.8-2.4,10-2.2c-0.7-0.4-1.4-0.8-2.2-1.2
			c0.9,1.2,1.2,2.7,1.6,4.2c0.3,1.3,1.8,2.1,3.1,1.7c9.2-2.6,17.5-5.8,26-10.3c2.8-1.5,0.3-5.8-2.5-4.3c-8.1,4.3-16,7.3-24.8,9.8
			c1,0.6,2.1,1.2,3.1,1.7c-0.6-2.2-1.2-5.6-3.6-6.5c-2.8-1.1-7.6,1-10.3,1.7c-2.7,0.8-7,1.4-8.8,3.8c-1.5,2-1.5,5.9-1.3,8.3
			C18.3,45.5,23.3,45.5,23,42.3L23,42.3z"/>
	</g>
</g>
<g id="XMLID_2_">
	<g id="XMLID_39_">
		<path id="XMLID_48_" class="st0" d="M18.1,43c1.2,5.3,2.7,10.5,4.6,15.6c1.7,4.5,6,11.1,5.9,15.9c-0.1,3.2,4.9,3.2,5,0
			c0.2-5.4-3.6-10.8-5.4-15.7C26,53.2,24.3,47.5,23,41.7C22.2,38.5,17.4,39.9,18.1,43L18.1,43z"/>
	</g>
</g>
<g id="XMLID_3_">
	<g id="XMLID_28_">
		<path id="XMLID_33_" class="st0" d="M31.4,77.7c6.7-0.3,12.4-3.3,18.7-5.3c3.1-0.9,1.8-5.8-1.3-4.8c-5.8,1.8-11.2,4.8-17.4,5.1
			C28.2,72.9,28.2,77.9,31.4,77.7L31.4,77.7z"/>
	</g>
</g>
<g id="XMLID_4_">
	<g id="XMLID_32_">
		<path id="XMLID_37_" class="st0" d="M34.5,74.6c0.7-5.2,1.4-10.5,2.2-15.7c0.4-2.6,0.7-5.2,1.1-7.8c0.1-1,0-3.1,0.5-3.9
			c0.8-1.3,3.2-1.9,4.5-2.4c9.6-3.7,19.5-6.9,29.4-9.7c3.1-0.9,1.8-5.7-1.3-4.8c-6,1.7-12,3.6-17.9,5.6c-5.4,1.8-12,3.3-16.8,6.3
			c-3.6,2.2-3.1,6.9-3.6,10.6c-1,6.9-1.9,13.7-2.9,20.6C29.2,76.4,34.1,77.8,34.5,74.6L34.5,74.6z"/>
	</g>
</g>
<g id="XMLID_5_">
	<g id="XMLID_41_">
		<path id="XMLID_45_" class="st0" d="M72.2,35c1.9-0.6,4.1-1.5,6.1-1.7c-0.7-0.4-1.4-0.8-2.2-1.2c0.7,1.5,0.1,4.7,0.2,6.3
			c0,2.4,0,4.8-0.1,7.2c-0.1,4.7-0.5,9.4-1.1,14c-0.4,3.2,4.6,3.2,5,0c0.7-5.6,1.1-11.1,1.2-16.8c0.1-4.1,0.9-9.5-0.8-13.3
			c-0.3-0.7-1.4-1.3-2.2-1.2c-2.5,0.3-5,1.1-7.4,1.9C67.8,31.2,69.1,36,72.2,35L72.2,35z"/>
	</g>
</g>
<g id="XMLID_6_">
	<g id="XMLID_22_">
		<path id="XMLID_26_" class="st0" d="M51,72.1c9-3.4,18.1-6,27.2-9c3-1,1.7-5.8-1.3-4.8c-9.1,3-18.3,5.7-27.2,9
			C46.7,68.4,48,73.2,51,72.1L51,72.1z"/>
	</g>
</g>
<g id="XMLID_7_">
	<g id="XMLID_55_">
		<path id="XMLID_59_" class="st0" d="M66.3,27.7c1.6-0.8,3.8-1.1,5.6-1.2c-0.8-0.8-1.7-1.7-2.5-2.5c0.1,2.6,0.1,5.1-0.1,7.7
			c-0.3,3.2,4.7,3.2,5,0c0.2-2.6,0.3-5.1,0.1-7.7c-0.1-1.3-1.1-2.6-2.5-2.5c-2.7,0.1-5.7,0.7-8.1,1.9C60.8,24.8,63.4,29.1,66.3,27.7
			L66.3,27.7z"/>
	</g>
</g>
</svg>
