<?xml version="1.0" encoding="utf-8"?>
<!-- Generator: Adobe Illustrator 19.0.0, SVG Export Plug-In . SVG Version: 6.00 Build 0)  -->
<svg version="1.1" id="Calque_1" xmlns="http://www.w3.org/2000/svg" xmlns:xlink="http://www.w3.org/1999/xlink" x="0px" y="0px"
	 viewBox="0 0 99.2 99.2" style="enable-background:new 0 0 99.2 99.2;" xml:space="preserve">
<style type="text/css">
	.st0{fill:#1D1D1B;}
</style>
<g id="XMLID_1_">
	<g id="XMLID_19_">
		<path id="XMLID_23_" class="st0" d="M80.8,44.1c-0.1,4.4,0.6,10.3-0.8,14.5c0.6-0.6,1.2-1.2,1.7-1.7c-3.7,0.9-8.1,0.3-11.9,0.4
			c-3.6,0.1-7.1,0.1-10.7,0.2c-7.5,0.1-14.9,0.3-22.4,0.4c-3.2,0.1-3.2,5.1,0,5c12.6-0.2,25.3-0.5,37.9-0.7
			c3.1-0.1,8.4,1.1,10.1-2.2c1-1.9,0.6-5,0.7-7c0.1-2.9,0.2-5.9,0.3-8.8C85.9,40.9,80.9,40.9,80.8,44.1L80.8,44.1z"/>
	</g>
</g>
<g id="XMLID_2_">
	<g id="XMLID_24_">
		<path id="XMLID_28_" class="st0" d="M83.2,41c-15.5,1.4-31.1,1.7-46.6,0.8c-3.2-0.2-3.2,4.8,0,5c15.6,0.9,31.1,0.6,46.6-0.8
			C86.4,45.7,86.4,40.7,83.2,41L83.2,41z"/>
	</g>
</g>
<g id="XMLID_3_">
	<g id="XMLID_29_">
		<path id="XMLID_33_" class="st0" d="M38.8,44.3c0.4-5.2,0.4-10.3,0.1-15.5c-0.1-2.3-2.6-3.1-4.3-1.8c-7.2,5.7-12.9,13.1-20.4,18.4
			c-2.6,1.8-0.1,6.2,2.5,4.3c7.9-5.6,13.9-13.3,21.5-19.2c-1.4-0.6-2.8-1.2-4.3-1.8c0.3,5.2,0.2,10.3-0.1,15.5
			C33.6,47.5,38.6,47.5,38.8,44.3L38.8,44.3z"/>
	</g>
</g>
<g id="XMLID_4_">
	<g id="XMLID_34_">
		<path id="XMLID_38_" class="st0" d="M34.1,60.6c0.1,3.6-0.3,6.8-1.4,10.2c1.4-0.4,2.8-0.7,4.2-1.1c-6.6-8.1-13.4-15.8-20.6-23.3
			c-2.2-2.3-5.8,1.2-3.5,3.5c7.2,7.5,14.1,15.3,20.6,23.3c1.3,1.5,3.7,0.5,4.2-1.1c1.2-3.8,1.7-7.6,1.6-11.5
			C39,57.4,34,57.4,34.1,60.6L34.1,60.6z"/>
	</g>
</g>
</svg>
