<?xml version="1.0" encoding="utf-8"?>
<!-- Generator: Adobe Illustrator 19.0.0, SVG Export Plug-In . SVG Version: 6.00 Build 0)  -->
<svg version="1.1" id="Calque_1" xmlns="http://www.w3.org/2000/svg" xmlns:xlink="http://www.w3.org/1999/xlink" x="0px" y="0px"
	 viewBox="0 0 99.2 99.2" style="enable-background:new 0 0 99.2 99.2;" xml:space="preserve">
<style type="text/css">
	.st0{fill:#1D1D1B;}
</style>
<g id="XMLID_1_">
	<g id="XMLID_69_">
		<path id="XMLID_73_" class="st0" d="M58.1,38.8c0.5,5.7-3.2,7-8.1,6.9c-1.2,0-3.1,0-4.2-0.5c-2-1.1-3.3-3.9-3.3-6
			c0-4.1,3.7-8.1,8-7.4c3.8,0.6,6.9,4.1,7.7,7.7c0.5,2.4,4.2,1.4,3.6-1c-1.3-5.8-7.1-11.1-13.3-10.5c-5.9,0.6-10.3,6.6-9.7,12.4
			c0.3,2.7,1.7,5.3,3.8,7.1c2.4,2.1,5.1,2,8.1,2.1c3,0,5.9,0.1,8.2-2.1c2.3-2.2,3.2-5.4,3-8.6C61.7,36.4,57.9,36.4,58.1,38.8z"/>
	</g>
</g>
<g id="XMLID_2_">
	<g id="XMLID_63_">
		<path id="XMLID_67_" class="st0" d="M54,49.2c7.4,5.1,6.1,16,6.2,23.8c0,2.4,3.8,2.4,3.8,0c-0.1-9.5,0.9-21-8-27.1
			C53.9,44.6,52,47.8,54,49.2L54,49.2z"/>
	</g>
</g>
<g id="XMLID_3_">
	<g id="XMLID_56_">
		<path id="XMLID_61_" class="st0" d="M45.4,45.5c-11.8,0.8-12.5,16.3-11.7,25c0.4,5.1,5.8,4.9,10.2,5.5c6.3,0.9,12-0.9,18.2-1
			c2.4-0.1,2.4-3.8,0-3.8c-7.2,0.2-15.4,3.3-22.4,0.2c-3.6-1.6-2.4-7.5-2.1-11c0.4-4.4,2.4-10.8,7.8-11.2
			C47.8,49.1,47.8,45.4,45.4,45.5L45.4,45.5z"/>
	</g>
</g>
<g id="XMLID_4_">
	<g id="XMLID_16_">
		<path id="XMLID_20_" class="st0" d="M43.4,79.8c-15.8-1.4-20-19-17.6-32.2C28.3,34.8,36.1,16.7,52,18.3
			c15.7,1.5,22.5,21,22.9,34.5c0.2,7.8-3.3,16.8-8.8,22.4C60,81.4,51.4,80.7,43.4,79.8c-2.4-0.3-2.4,3.5,0,3.8
			c6.8,0.8,14.3,1.4,20.6-2.1c5.6-3.1,9.2-9,11.7-14.8c5.7-13.3,2.4-31.5-6.8-42.8c-8.2-10-21.6-12.5-32.2-4.6
			c-10.5,7.8-15.3,23.5-15.4,36.1C21.3,69,29,82.3,43.4,83.5C45.9,83.8,45.8,80,43.4,79.8L43.4,79.8z"/>
	</g>
</g>
</svg>
