<?xml version="1.0" encoding="utf-8"?>
<!-- Generator: Adobe Illustrator 19.0.0, SVG Export Plug-In . SVG Version: 6.00 Build 0)  -->
<svg version="1.1" id="Calque_1" xmlns="http://www.w3.org/2000/svg" xmlns:xlink="http://www.w3.org/1999/xlink" x="0px" y="0px"
	 viewBox="0 0 99.2 99.2" style="enable-background:new 0 0 99.2 99.2;" xml:space="preserve">
<style type="text/css">
	.st0{fill:#1D1D1B;}
</style>
<g id="XMLID_1_">
	<g id="XMLID_34_">
		<path id="XMLID_38_" class="st0" d="M79.8,48.7c-0.1,4.4,0.6,10.3-0.8,14.5c0.6-0.6,1.2-1.2,1.7-1.7c-3.7,0.9-8.1,0.3-11.9,0.4
			c-3.6,0.1-7.1,0.1-10.7,0.2c-7.5,0.1-14.9,0.3-22.4,0.4c-3.2,0.1-3.2,5.1,0,5c12.6-0.2,25.3-0.5,37.9-0.7
			c3.1-0.1,8.4,1.1,10.1-2.2c1-1.9,0.6-5,0.7-7c0.1-2.9,0.2-5.9,0.3-8.8C84.9,45.5,79.9,45.5,79.8,48.7L79.8,48.7z"/>
	</g>
</g>
<g id="XMLID_2_">
	<g id="XMLID_33_">
		<path id="XMLID_47_" class="st0" d="M66.8,45.1c-10.3,1.7-20.9,2.1-31.2,1.3c-3.2-0.2-3.2,4.8,0,5c10.8,0.8,21.8,0.3,32.6-1.5
			C71.3,49.3,70,44.5,66.8,45.1L66.8,45.1z"/>
	</g>
</g>
<g id="XMLID_3_">
	<g id="XMLID_22_">
		<path id="XMLID_26_" class="st0" d="M37.9,48.9c0.4-5.2,0.4-10.3,0.1-15.5c-0.1-2.3-2.6-3.1-4.3-1.8c-7.2,5.7-12.9,13.1-20.4,18.4
			c-2.6,1.8-0.1,6.2,2.5,4.3c7.9-5.6,13.9-13.3,21.5-19.2c-1.4-0.6-2.8-1.2-4.3-1.8c0.3,5.2,0.2,10.3-0.1,15.5
			C32.6,52.1,37.6,52.1,37.9,48.9L37.9,48.9z"/>
	</g>
</g>
<g id="XMLID_4_">
	<g id="XMLID_16_">
		<path id="XMLID_20_" class="st0" d="M33.1,65.2c0.1,3.6-0.3,6.8-1.4,10.2c1.4-0.4,2.8-0.7,4.2-1.1C29.3,66.3,22.5,58.5,15.3,51
			c-2.2-2.3-5.8,1.2-3.5,3.5c7.2,7.5,14.1,15.3,20.6,23.3c1.3,1.5,3.7,0.5,4.2-1.1c1.2-3.8,1.7-7.6,1.6-11.5C38,62,33,62,33.1,65.2
			L33.1,65.2z"/>
	</g>
</g>
<g id="XMLID_5_">
	<g id="XMLID_41_">
		<path id="XMLID_45_" class="st0" d="M51.4,25.6c9.7,1,19.4,1.7,29.2,1.5c-0.8-0.8-1.7-1.7-2.5-2.5c0.6,8.4,1.2,16.8,1.8,25.2
			c0.2,3.2,5.2,3.2,5,0c-0.6-8.4-1.2-16.8-1.8-25.2C83,23.2,82,22,80.6,22.1c-9.8,0.2-19.5-0.5-29.2-1.5
			C48.2,20.3,48.2,25.3,51.4,25.6L51.4,25.6z"/>
	</g>
</g>
<g id="XMLID_6_">
	<g id="XMLID_48_">
		<path id="XMLID_52_" class="st0" d="M48.9,23.1c0.1,3.6,0.1,7.2,0.2,10.8c0.1,2.2-0.4,5,1.8,6.3c4,2.4,10.7-1.1,15.1,0.1
			c-0.6-0.6-1.2-1.2-1.7-1.7c0.7,2.6,0.7,5.9,0.8,8.6c0.2,3.2,5.2,3.2,5,0c-0.2-2.9,0.1-6.8-0.9-9.6c-0.9-2.7-3.4-2.3-5.8-2.3
			c-1.5,0.1-9.5,1.4-10.4,0.4c1.3,1.5,1.1-4.4,1.1-4.8c0-2.6-0.1-5.2-0.2-7.8C53.7,19.9,48.7,19.9,48.9,23.1L48.9,23.1z"/>
	</g>
</g>
</svg>
