<?xml version="1.0" encoding="utf-8"?>
<!-- Generator: Adobe Illustrator 19.0.0, SVG Export Plug-In . SVG Version: 6.00 Build 0)  -->
<svg version="1.1" id="Calque_1" xmlns="http://www.w3.org/2000/svg" xmlns:xlink="http://www.w3.org/1999/xlink" x="0px" y="0px"
	 viewBox="0 0 99.2 99.2" style="enable-background:new 0 0 99.2 99.2;" xml:space="preserve">
<style type="text/css">
	.st0{fill:#1D1D1B;}
</style>
<g id="XMLID_1_">
	<g id="XMLID_13_">
		<path id="XMLID_17_" class="st0" d="M22.6,49.1c-0.1,6.6,0.3,13.1,1.2,19.6c0.6,4.1,1.3,6.9,5.5,8.3C40.3,80.4,53.6,78,65,77.6
			c3.2-0.1,3.2-5.1,0-5c-8.9,0.4-18,1.3-26.8,0.7c-1.9-0.1-5.9,0-7.6-1.2c-2.5-1.8-2.1-5.6-2.4-8.3c-0.5-4.9-0.6-9.8-0.6-14.7
			C27.6,45.8,22.6,45.8,22.6,49.1L22.6,49.1z"/>
	</g>
</g>
<g id="XMLID_2_">
	<g id="XMLID_20_">
		<path id="XMLID_24_" class="st0" d="M64.7,77.6c5.8-0.5,6.5-6.1,7.3-11c1.2-7.2,1.5-14.5,1-21.8c-0.2-3.2-5.2-3.2-5,0
			c0.3,4.3,0.4,8.6,0.1,12.9c-0.2,2.2-0.6,14.6-3.4,14.9C61.5,72.9,61.5,77.9,64.7,77.6L64.7,77.6z"/>
	</g>
</g>
<g id="XMLID_3_">
	<g id="XMLID_27_">
		<path id="XMLID_31_" class="st0" d="M27.6,49.3c0.4-2,7.6-2.1,9-2.3c3.6-0.5,7.3-0.8,10.9-0.9c7.3-0.3,14.6,0.2,21.8,1.2
			c3.1,0.5,4.5-4.4,1.3-4.8c-9.9-1.4-19.8-1.9-29.7-1C36,41.9,24,41.4,22.8,47.9C22.2,51.1,27.1,52.4,27.6,49.3L27.6,49.3z"/>
	</g>
</g>
<g id="XMLID_4_">
	<g id="XMLID_39_">
		<path id="XMLID_54_" class="st0" d="M32.6,44.9C32.3,39.8,32.9,34.8,35,30c2.6-6.1,6.1-9.9,13-10.3c5.5-0.3,11,1,13.9,6.2
			c2.7,4.9,1.9,11,1.3,16.3c-0.3,3.2,4.7,3.2,5,0c0.8-7.3,1.2-15.2-3.7-21.4c-4-5-10.4-6.5-16.5-6.2c-6.9,0.3-11.6,2.7-15.3,8.7
			c-4,6.5-5.7,14-5.1,21.6C27.9,48.1,32.9,48.2,32.6,44.9L32.6,44.9z"/>
	</g>
</g>
<g id="XMLID_5_">
	<g id="XMLID_41_">
		<path id="XMLID_45_" class="st0" d="M38.6,43.5c0.9-6.3,2.7-14.4,9.9-15.7c2.1-0.4,3.9-0.8,5.2,1.3c0.7,1.2,1,2.7,1.3,4
			c0.7,3.3,0.9,6.7,0.7,10.1c-0.1,3.2,4.9,3.2,5,0c0.3-7.1-0.3-21.4-10.4-20.8c-4.1,0.3-8.5,1.5-11.1,4.9c-3.2,4.1-4.7,9.8-5.4,14.8
			C33.4,45.3,38.2,46.7,38.6,43.5L38.6,43.5z"/>
	</g>
</g>
<g id="XMLID_6_">
	<g id="XMLID_48_">
		<path id="XMLID_52_" class="st0" d="M47.9,54.5c-2.4,0-4.4,2.4-3.7,4.8c0.6,2.2,2.9,3.5,5.1,3c2.1-0.5,3.6-2.5,3.1-4.6
			c-0.4-2.1-2.7-3.6-4.8-3c-1.2,0.4-2.2,1.8-1.7,3.1c0.4,1.2,1.7,2.2,3.1,1.7c0.4-0.1,0.2-0.1-0.7-0.1c-0.3-0.2-0.4-0.2-0.2-0.1
			c-0.2-0.1-0.3-0.2-0.4-0.4c0.1,0.2,0.1,0.2-0.1-0.1c-0.1-0.4,0-0.9,0.3-1.2c0.3-0.2,0.3-0.2,0.1-0.1c0.3-0.1,0.4-0.2,0.1-0.1
			c0.4,0,0.4,0,0.2,0c0.4,0.1,0.4,0.1,0.2,0c0.3,0.2,0.4,0.2,0.1,0c0.2,0.1,0.3,0.2,0.4,0.3c0.4,0.7-0.3,1.6-1.1,1.6
			c1.3,0,2.6-1.1,2.5-2.5C50.3,55.7,49.3,54.5,47.9,54.5L47.9,54.5z"/>
	</g>
</g>
<g id="XMLID_7_">
	<g id="XMLID_55_">
		<path id="XMLID_59_" class="st0" d="M45.6,58.7c0.3,3.1,0.3,6.5,1.2,9.5c1,3.1,5.8,1.8,4.8-1.3c-0.8-2.6-0.8-5.5-1.1-8.2
			C50.3,55.5,45.3,55.5,45.6,58.7L45.6,58.7z"/>
	</g>
</g>
</svg>
