<?xml version="1.0" encoding="utf-8"?>
<!-- Generator: Adobe Illustrator 19.0.0, SVG Export Plug-In . SVG Version: 6.00 Build 0)  -->
<svg version="1.1" id="Calque_1" xmlns="http://www.w3.org/2000/svg" xmlns:xlink="http://www.w3.org/1999/xlink" x="0px" y="0px"
	 viewBox="0 0 99.2 99.2" style="enable-background:new 0 0 99.2 99.2;" xml:space="preserve">
<style type="text/css">
	.st0{fill:#1D1D1B;}
</style>
<g id="XMLID_1_">
	<g id="XMLID_13_">
		<path id="XMLID_17_" class="st0" d="M12.9,41.9c0,2.9,0,5.9,0,8.8c0,2.1-0.6,5.1,0.4,7C15,61,20.5,60,23.5,60.2
			c12.6,0.7,25.2,1.4,37.9,2.1c3.2,0.2,3.2-4.8,0-5c-7.5-0.4-15-0.9-22.4-1.3c-3.6-0.2-7.1-0.4-10.7-0.6c-3.7-0.2-8.3,0.2-11.9-0.8
			c0.6,0.6,1.2,1.2,1.7,1.7c-1.2-4.3-0.3-10.1-0.2-14.5C17.9,38.6,12.9,38.6,12.9,41.9L12.9,41.9z"/>
	</g>
</g>
<g id="XMLID_2_">
	<g id="XMLID_20_">
		<path id="XMLID_24_" class="st0" d="M15.6,43.8c15.5,2,31,2.8,46.6,2.4c3.2-0.1,3.2-5.1,0-5c-15.6,0.4-31.1-0.5-46.6-2.4
			C12.4,38.4,12.4,43.4,15.6,43.8L15.6,43.8z"/>
	</g>
</g>
<g id="XMLID_3_">
	<g id="XMLID_27_">
		<path id="XMLID_31_" class="st0" d="M64.9,43.7c-0.2-5.2,0-10.3,0.4-15.5c-1.4,0.6-2.8,1.2-4.3,1.8c7.4,6.2,13.1,14.1,20.8,19.9
			c2.6,1.9,5.1-2.4,2.5-4.3C77,40.1,71.6,32.4,64.6,26.5c-1.7-1.4-4.1-0.5-4.3,1.8c-0.5,5.2-0.6,10.3-0.4,15.5
			C60,47,65,47,64.9,43.7L64.9,43.7z"/>
	</g>
</g>
<g id="XMLID_4_">
	<g id="XMLID_34_">
		<path id="XMLID_38_" class="st0" d="M59,60c-0.3,4,0.1,7.8,1.2,11.6c0.5,1.7,2.9,2.6,4.2,1.1c6.8-7.8,14-15.3,21.4-22.6
			c2.3-2.2-1.2-5.8-3.5-3.5c-7.4,7.2-14.6,14.8-21.4,22.6c1.4,0.4,2.8,0.7,4.2,1.1c-1-3.4-1.3-6.7-1-10.3C64.3,56.8,59.3,56.9,59,60
			L59,60z"/>
	</g>
</g>
</svg>
