<?xml version="1.0" encoding="utf-8"?>
<!-- Generator: Adobe Illustrator 19.0.0, SVG Export Plug-In . SVG Version: 6.00 Build 0)  -->
<svg version="1.1" id="Calque_1" xmlns="http://www.w3.org/2000/svg" xmlns:xlink="http://www.w3.org/1999/xlink" x="0px" y="0px"
	 viewBox="0 0 99.2 99.2" style="enable-background:new 0 0 99.2 99.2;" xml:space="preserve">
<style type="text/css">
	.st0{fill:#1D1D1B;}
</style>
<g id="XMLID_1_">
	<g id="XMLID_69_">
		<path id="XMLID_73_" class="st0" d="M6.7,46.5C7,51.4,6.2,57.7,12,59c3.5,0.8,7.8,0.4,11.4,0.3c4.8,0,9.6-0.2,14.5-0.4
			C56,58.2,74.1,59,92.2,58.1c2.4-0.1,2.4-3.9,0-3.8c-7.1,0.4-14.2,1-21.3,0.8c-7.5-0.1-14.9-0.6-22.5-0.4
			C40.7,55,33,55.5,25.3,55.6c-3.2,0-7.4,0.7-10.6-0.1c-4.4-1.1-4-5.3-4.3-9C10.3,44.1,6.5,44.1,6.7,46.5L6.7,46.5z"/>
	</g>
</g>
<g id="XMLID_2_">
	<g id="XMLID_63_">
		<path id="XMLID_67_" class="st0" d="M8.6,48.4c26.9-1.6,53.8-2.3,80.7-2.1c2.4,0,2.4-3.7,0-3.8C62.4,42.3,35.4,43,8.6,44.6
			C6.2,44.8,6.1,48.5,8.6,48.4L8.6,48.4z"/>
	</g>
</g>
<g id="XMLID_3_">
	<g id="XMLID_27_">
		<path id="XMLID_31_" class="st0" d="M88.3,46c1.3,1,1.4,3.2,1.7,4.7c0.3,1.8,0.4,3.7,0.3,5.6c-0.1,2.4,3.7,2.4,3.8,0
			c0.1-2.5-0.1-5-0.6-7.4c-0.4-1.9-0.9-4.2-2.5-5.5C89.1,41.9,86.4,44.5,88.3,46L88.3,46z"/>
	</g>
</g>
<g id="XMLID_4_">
	<g id="XMLID_57_">
		<path id="XMLID_61_" class="st0" d="M54.6,46.6c2.2,2.5,2.3,6,2.5,9.1c0.1,2.4,3.9,2.4,3.8,0c-0.2-4.3-0.6-8.5-3.6-11.8
			C55.7,42.1,53,44.8,54.6,46.6L54.6,46.6z"/>
	</g>
</g>
<g id="XMLID_5_">
	<g id="XMLID_51_">
		<path id="XMLID_55_" class="st0" d="M10.8,48.7c1.5,1,2.6,2.6,3.7,4c1.3,1.7,2.8,3.3,4.5,4.7c1.8,1.6,4.5-1,2.7-2.7
			c-1.8-1.6-3.4-3.3-4.8-5.2c-1.2-1.6-2.4-3-4.1-4.1C10.7,44.1,8.8,47.4,10.8,48.7L10.8,48.7z"/>
	</g>
</g>
<g id="XMLID_6_">
	<g id="XMLID_45_">
		<path id="XMLID_49_" class="st0" d="M19.2,48.2c3.4,2.4,6.3,5.4,8.6,8.8c1.3,2,4.6,0.1,3.2-1.9c-2.7-4-6-7.4-10-10.2
			C19.1,43.6,17.2,46.9,19.2,48.2L19.2,48.2z"/>
	</g>
</g>
<g id="XMLID_7_">
	<g id="XMLID_39_">
		<path id="XMLID_43_" class="st0" d="M29,48.1c2.7,2.4,5,5.1,6.9,8.1c1.3,2,4.6,0.1,3.2-1.9c-2.1-3.3-4.6-6.2-7.5-8.9
			C29.9,43.8,27.2,46.5,29,48.1L29,48.1z"/>
	</g>
</g>
<g id="XMLID_9_">
	<g id="XMLID_33_">
		<path id="XMLID_37_" class="st0" d="M38.1,46.6c2.4,3.1,4.8,6.2,7,9.5c1.3,2,4.6,0.1,3.2-1.9c-2.4-3.5-4.9-6.9-7.6-10.3
			C39.3,42.1,36.6,44.7,38.1,46.6L38.1,46.6z"/>
	</g>
</g>
<g id="XMLID_8_">
	<g id="XMLID_22_">
		<path id="XMLID_26_" class="st0" d="M46.2,48.1c2.5,2.4,4.8,5.1,6.7,8c1.3,2,4.5,0.1,3.2-1.9c-2.1-3.2-4.5-6.2-7.2-8.8
			C47.1,43.8,44.5,46.5,46.2,48.1L46.2,48.1z"/>
	</g>
</g>
</svg>
