<?xml version="1.0" encoding="utf-8"?>
<!-- Generator: Adobe Illustrator 19.0.0, SVG Export Plug-In . SVG Version: 6.00 Build 0)  -->
<svg version="1.1" id="Calque_1" xmlns="http://www.w3.org/2000/svg" xmlns:xlink="http://www.w3.org/1999/xlink" x="0px" y="0px"
	 viewBox="0 0 99.2 99.2" style="enable-background:new 0 0 99.2 99.2;" xml:space="preserve">
<style type="text/css">
	.st0{fill:#1D1D1B;}
</style>
<g id="XMLID_1_">
	<g id="XMLID_17_">
		<path id="XMLID_26_" class="st0" d="M28.7,40.2c-0.1-1.2-0.5-3.2-0.3-4.4c-0.6,0.6-1.2,1.2-1.7,1.7c3.4-1.3,8.2-0.8,11.8-1
			c3.6-0.2,7.2-0.3,10.8-0.4C56.4,36,63.5,36,70.6,36c-0.7-0.4-1.4-0.8-2.2-1.2c1.1,1.8,1.8,3.5,2.4,5.5c0.9,3.1,5.7,1.8,4.8-1.3
			c-0.6-2-1.5-5.5-3.1-6.9c-1.5-1.3-3.1-1-5-1c-6.7,0-13.5,0.1-20.2,0.2c-6.6,0.2-14.1-0.2-20.6,1.2c-4.2,0.9-3.3,4.2-3,7.8
			C24,43.4,29,43.4,28.7,40.2L28.7,40.2z"/>
	</g>
</g>
<g id="XMLID_2_">
	<g id="XMLID_20_">
		<path id="XMLID_24_" class="st0" d="M47.2,34.9c0.2,12.5,0.7,25.1,1.5,37.6c0.2,3.2,5.2,3.2,5,0c-0.8-12.5-1.3-25-1.5-37.6
			C52.1,31.7,47.1,31.7,47.2,34.9L47.2,34.9z"/>
	</g>
</g>
<g id="XMLID_3_">
	<g id="XMLID_27_">
		<path id="XMLID_31_" class="st0" d="M45.8,76.6c3.8,0.1,7.6,0.2,11.4,0.3c3.2,0.1,3.2-4.9,0-5c-3.8-0.1-7.6-0.2-11.4-0.3
			C42.6,71.5,42.6,76.5,45.8,76.6L45.8,76.6z"/>
	</g>
</g>
</svg>
