<?xml version="1.0" encoding="utf-8"?>
<!-- Generator: Adobe Illustrator 19.0.0, SVG Export Plug-In . SVG Version: 6.00 Build 0)  -->
<svg version="1.1" id="Calque_1" xmlns="http://www.w3.org/2000/svg" xmlns:xlink="http://www.w3.org/1999/xlink" x="0px" y="0px"
	 viewBox="0 0 99.2 99.2" style="enable-background:new 0 0 99.2 99.2;" xml:space="preserve">
<style type="text/css">
	.st0{fill:#1D1D1B;}
</style>
<g id="XMLID_1_">
	<g id="XMLID_17_">
		<path id="XMLID_26_" class="st0" d="M14.9,34.7c-0.4,8.8-0.3,18.3,1.6,27c1.5,6.7,7.3,7.7,13.4,8c17.2,1,35-1.9,52.2-3.3
			c3.2-0.3,3.2-5.3,0-5c-13.8,1.1-27.6,2.5-41.5,3.1c-3.3,0.1-6.5,0.3-9.8,0.2c-5-0.2-8.4-0.6-9.7-6.2c-1.7-7.5-1.4-16.1-1.1-23.8
			C20,31.4,15,31.4,14.9,34.7L14.9,34.7z"/>
	</g>
</g>
<g id="XMLID_2_">
	<g id="XMLID_20_">
		<path id="XMLID_24_" class="st0" d="M17.6,35.7c20-0.5,39.9-0.9,59.9-1.2c-0.8-0.6-1.6-1.2-2.4-1.8c3.2,9.9,4.4,20.8,4.5,31.2
			c0,3.2,5,3.2,5,0c-0.1-10.8-1.3-22.2-4.6-32.6c-0.3-1-1.3-1.9-2.4-1.8c-20,0.3-39.9,0.8-59.9,1.2C14.4,30.8,14.3,35.8,17.6,35.7
			L17.6,35.7z"/>
	</g>
</g>
<g id="XMLID_3_">
	<g id="XMLID_27_">
		<path id="XMLID_31_" class="st0" d="M38.1,41.1c0.6,3.4,1.1,6.9,1.6,10.3c0.4,2.5,0.2,7,2.7,8.3c3,1.6,7.3-2,9.6-3.4
			c3.5-2,7.9-4.2,10.4-7.4c0.5-0.7,0.4-1.8,0-2.5c-1.3-2.5-5.7-3.2-8-4c-4.4-1.6-8.8-3-13.2-4.4c-3.1-0.9-4.4,3.9-1.3,4.8
			c3.2,1,6.4,2,9.6,3.1c1.5,0.5,2.9,1,4.4,1.5c0.7,0.2,4.1,1,4.3,1.5c0-0.8,0-1.7,0-2.5c-1.4,1.9-4.7,3.3-6.7,4.5
			c-1.1,0.7-6,4.4-7.3,4.1c0.6,0.6,1.2,1.2,1.7,1.7c-2.1-5.1-1.9-11.6-2.9-17C42.4,36.6,37.6,37.9,38.1,41.1L38.1,41.1z"/>
	</g>
</g>
</svg>
