<?xml version="1.0" encoding="utf-8"?>
<!-- Generator: Adobe Illustrator 19.0.0, SVG Export Plug-In . SVG Version: 6.00 Build 0)  -->
<svg version="1.1" id="Calque_1" xmlns="http://www.w3.org/2000/svg" xmlns:xlink="http://www.w3.org/1999/xlink" x="0px" y="0px"
	 viewBox="0 0 99.2 99.2" style="enable-background:new 0 0 99.2 99.2;" xml:space="preserve">
<style type="text/css">
	.st0{fill:#1D1D1B;}
</style>
<g id="XMLID_1_">
	<g id="XMLID_17_">
		<path id="XMLID_26_" class="st0" d="M37.6,48.3c-4.8,6.1-9,12.6-12.2,19.7c-1.5,3.4-5.5,10.7-0.2,13.1c4.4,2,9-3.9,11.2-6.9
			c4.6-6,9.7-11.9,13.6-18.3c1.7-2.8-2.7-5.3-4.3-2.5c-2.5,4.1-5.7,7.6-8.6,11.4c-2.5,3.2-4.5,7-7.6,9.8c-4.1,3.8-0.4-2.7,0.2-4
			c0.9-2.1,2-4.2,3.1-6.2c2.4-4.4,5.2-8.5,8.3-12.5C43.2,49.3,39.6,45.8,37.6,48.3L37.6,48.3z"/>
	</g>
</g>
<g id="XMLID_3_">
	<g id="XMLID_21_">
		<path id="XMLID_25_" class="st0" d="M41.2,48.3c-3.9-6.3-4.7-17.9,0.3-23.9c5.4-6.4,14.7-6,21.2-1.6c6.7,4.5,11.4,13,7.4,20.8
			s-13.2,10-21.2,8.6c-3.1-0.5-4.5,4.3-1.3,4.8c10.5,1.8,22.2-1.2,27.2-11.5c4.7-9.6-0.2-20.1-8.3-26.1c-8.1-6.1-19.9-6.8-27.5,0.5
			c-7.7,7.4-7.4,22.3-2.1,30.9C38.5,53.6,42.9,51.1,41.2,48.3L41.2,48.3z"/>
	</g>
</g>
<g id="XMLID_2_">
	<g id="XMLID_27_">
		<path id="XMLID_31_" class="st0" d="M48.8,44.7c-3-2.3-3.5-9.5-2.3-12.9c1.9-5.5,10.3-5.5,13.7-2c3.2,3.2,4.2,9,1,12.4
			C58.7,44.7,52.2,46.4,48.8,44.7c-2.9-1.5-5.4,2.8-2.5,4.3c5.6,2.9,15.5,0.8,19.3-4.2c4.8-6.1,2.2-15.8-3.8-20.2
			c-5.6-4-15.5-2.8-19.2,3.5c-3.5,5.9-1.7,16.7,3.7,20.8C48.9,50.9,51.3,46.6,48.8,44.7L48.8,44.7z"/>
	</g>
</g>
<g id="XMLID_4_">
	<g id="XMLID_19_">
		<path id="XMLID_24_" class="st0" d="M65.4,64.9c5.4,0,10.7,0,16.1,0c3.2,0,3.2-5,0-5c-5.4,0-10.7,0-16.1,0
			C62.1,59.9,62.1,64.9,65.4,64.9L65.4,64.9z"/>
	</g>
</g>
<g id="XMLID_5_">
	<g id="XMLID_28_">
		<path id="XMLID_33_" class="st0" d="M70.6,54.9c0,5,0,10,0,15.1c0,3.2,5,3.2,5,0c0-5,0-10,0-15.1C75.6,51.6,70.6,51.6,70.6,54.9
			L70.6,54.9z"/>
	</g>
</g>
</svg>
